<svg width="637" height="663" viewBox="0 0 637 663" fill="none" xmlns="http://www.w3.org/2000/svg">
<path d="M330.288 511.324C363.047 524.223 401.956 508.468 409.762 474.494C417.979 438.73 384.653 405.085 346.056 410.532C336.99 411.812 318.008 423.262 316.806 407.852C316.153 399.49 318.126 338.747 317.004 336.017C316.122 333.87 317.676 335.401 315.218 334.593C312.18 333.592 260.801 334.46 248.855 334.43C240.748 334.41 229.619 334.585 233.686 345.777C238.653 359.441 240.767 372.276 235.306 386.246C222.3 419.513 177.34 431.53 147.628 409.985C134.218 400.262 125.932 385.161 125.525 369.246C125.358 362.685 126.432 356.145 128.79 349.961C130.23 346.189 133.154 342.42 131.059 338.345C129.601 335.505 126.409 333.989 123.127 334.123C118.514 334.111 99.6711 334.065 83.6017 334.026C78.652 340.971 73.3008 348.143 67.4599 355.578C58.3859 367.127 65.226 377.933 78.5717 384.019C84.1809 386.578 90.1298 388.426 95.9943 390.386C101.245 392.141 106.221 396.307 106.274 401.836C106.341 408.99 103.96 412.928 101.596 419.205C95.1624 436.288 93.7973 461.243 105.548 480.39C108.737 485.586 107.248 495.05 101.486 517.625C98.2888 530.156 100.962 541.213 110.396 550.351C118.877 558.565 129.394 561.71 140.85 562.673C161.076 564.374 181.279 563.694 201.52 562.818C217.776 562.115 225.18 565.839 227.365 581.498C227.543 582.768 231.277 622.382 233.876 648.415C262.256 656.928 292.218 661.774 323.223 662.393C323.149 635.979 316.448 536.299 316.477 526.142C316.5 517.771 317.395 506.25 330.288 511.324Z" fill="#F88D47"/>
<path d="M121.758 336.352C133.242 337.348 129.055 346.289 126.711 352.961C124.525 359.187 123.623 365.779 124.031 372.32C125.103 389.505 135.455 405.302 151.236 414.216C183.613 432.503 230.374 420.49 239.5 379.457C240.987 372.769 241.098 365.761 239.796 359.042C238.718 353.475 232.407 344.815 235.254 339.37C238.481 333.199 296.55 335.501 316.97 335.434C316.883 311.918 315.901 293.243 316.437 269.734C316.563 264.177 318.243 258.569 325.307 259.929C328.884 260.617 332.291 262.713 335.815 263.71C339.849 264.85 344.004 265.534 348.209 265.807C364.373 266.855 383.849 261.222 395.257 250.49C420.882 226.387 415.136 180.149 383.619 163.145C369.625 155.595 349.046 154.044 333.793 159.013C326.472 161.397 321.031 165.379 319.494 154.017C319.198 151.823 320.199 112.871 320.351 89.1674C318.759 89.2911 313.644 89.399 312.048 89.5465C273.052 93.1706 235.585 102.546 202.937 124.569C160.908 152.922 155.4 182.456 139.852 226.278L120.344 252.262L114.304 284.871C105.929 300.528 95.4243 317.651 81.8206 336.511C99.4907 336.35 118.119 336.036 121.758 336.352Z" fill="white"/>
<path d="M485.768 481.722C486.139 472.047 488.124 462.858 491.876 454.005C498.721 437.845 509.368 424.01 519.168 409.668C529.275 394.874 538.396 379.549 544.862 362.782C548.336 353.774 550.811 344.691 552.766 335.543C533.135 335.532 512.907 335.479 511.654 335.277C501.101 333.577 504.945 324.913 507.201 318.626C517.019 291.263 501.018 260.699 471.978 251.312C438.838 240.6 401.86 261.85 397.37 294.698C396.423 301.627 396.9 308.739 398.844 315.485C400.5 321.229 406.2 328.695 399.418 333.467C394.27 337.09 314.666 335.433 314.666 335.433C314.666 335.433 311.716 412.899 317.411 416.933C323.236 421.058 331.11 415.316 337.065 413.839C343.802 412.169 350.873 411.667 357.801 412.356C376.789 414.241 394.291 423.719 402.818 439.733C420.981 473.838 394.508 512.638 354.045 513.816C346.62 514.034 339.148 512.875 332.198 510.404C325.19 507.911 315.541 504.584 314.329 515.158C313.653 521.059 317.626 630.6 319.933 662.319C323.278 662.418 326.631 662.483 329.999 662.483C390.518 662.483 447.277 646.389 496.233 618.248C495.84 614.935 495.445 611.552 495.054 608.116L494.36 571.422L488.067 536.168C486.303 513.411 485.315 493.519 485.768 481.722Z" fill="white"/>
<path d="M555.115 263.359C547.253 192.828 510.881 142.72 447.161 112.502C406.531 93.2324 363.458 86.5398 318.795 89.2819C318.505 98.8838 316.209 141.918 317.227 155.593C318.231 169.107 332.251 161.313 340.078 159.515C349.843 157.272 360.222 157.503 369.869 160.215C393.851 166.955 410.577 188.312 410.488 211.751C410.414 231.106 398.701 249.225 380.588 258.345C371.081 263.132 360.142 265.263 349.379 264.451C343.627 264.016 337.98 262.776 332.627 260.746C327.684 258.873 322.5 255.273 317.499 259.359C313.525 262.607 314.533 269.208 314.428 273.681C314.228 282.075 313.945 322.878 313.626 336.294C331.915 336.721 388.164 337.195 395.818 337.216C399.13 337.226 402.222 337.006 404.536 334.34C408.255 330.058 405.271 325.632 403.757 321.237C395.433 297.057 401.88 273.735 425.741 261.693C447.483 250.719 471.706 254.443 489.232 270.806C506.381 286.817 510.908 311.87 500.27 332.251C495.406 341.516 509.937 343.713 516.72 343.871C521.204 343.976 535.47 344.309 550.657 344.665C557.478 318.21 558.202 291.054 555.115 263.359Z" fill="#F88D47"/>
<path d="M451.739 130.412C461.9 133.43 469.423 138.161 474.89 145.391C479.989 152.139 479.931 158.441 475.132 162.22C470.25 166.068 463.896 165.15 457.107 159.162C451.465 154.185 446.673 148.46 439.267 145.262C434.825 143.344 432.046 139.641 433.301 134.998C434.742 129.664 439.586 128.74 444.884 129.161C447.563 129.374 450.223 130.123 451.739 130.412Z" fill="white"/>
<path d="M489.779 169.727C494.649 171.748 497.722 179.544 495.645 184.212C494.07 187.75 491.025 188.936 487.013 187.35C482.104 185.409 479.2 177.794 481.472 173.149C483.135 169.746 486.002 168.494 489.779 169.727Z" fill="white"/>
<path d="M146.841 548.288C137.986 549.82 128.012 549.161 118.648 544.111C115.843 542.598 113.971 540.2 114.453 536.69C114.883 533.551 117.067 531.505 121.426 531.005C130.833 529.921 140.007 531.347 148.909 534.452C151.922 535.503 154.286 537.393 154.33 540.983C154.366 543.948 152.127 546.374 146.841 548.288Z" fill="white"/>
<path d="M169.941 536.366C170.51 536.233 171.515 535.832 172.537 535.787C178.167 535.541 183.688 536.264 189.002 538.155C191.388 539.005 193.465 540.35 193.287 543.376C193.139 545.908 191.248 547.832 187.99 548.233C181.624 549.014 175.45 548.132 169.705 545.16C167.962 544.258 166.635 542.813 166.689 540.607C166.738 538.646 167.811 537.376 169.941 536.366Z" fill="white"/>
<path d="M273.016 81.0491C253.165 81.1728 233.429 82.5406 213.688 84.5586C221.836 77.7028 229.857 72.9703 239.799 69.5779C240.363 69.3844 240.911 69.1791 241.489 68.9948C251.695 65.7419 262.096 62.8814 271.456 57.517C278.584 53.4309 284.887 47.8664 288.399 40.2879C294.366 27.4121 280.397 29.7882 272.792 31.8116C252.493 37.2128 231.405 42.4402 211.724 49.8108C190.489 57.7645 170.295 68.1194 150.342 78.8217C154.588 63.8279 165.451 54.1115 174.88 42.3783C178.966 37.2931 183.006 32.0788 186.645 26.6381C187.245 25.7403 187.861 24.8517 188.435 23.9408C191.563 18.9845 196.118 11.6692 195.727 5.50055C194.818 -8.83248 175.228 9.24967 171.547 12.5552C162.69 20.5076 153.653 28.2349 144.691 36.0649C134.004 45.4021 124.096 55.3371 116.259 67.2308C114.184 70.3783 112.207 73.5982 110.263 76.8406C106.801 82.6156 103.482 88.4894 100.194 94.3409C98.6904 97.0184 97.1686 99.671 95.6074 102.27C86.0502 118.178 74.9187 132.011 56.4653 136.663C28.5825 176.36 9.13132 222.398 0.689209 272.189C3.14826 272.532 5.60994 272.857 8.07688 273.13C41.5399 276.842 74.9516 281.589 108.504 284.409C110.437 284.571 112.367 284.722 114.296 284.867C126.182 262.645 133.783 243.371 139.849 226.275C127.272 202.697 134.843 170.969 158.724 156.824C163.529 153.979 168.557 152.023 173.649 150.855C198.084 145.248 223.998 158.2 233.763 182.774C238.002 193.44 236.539 205.307 241.334 215.824C243.378 220.31 248.13 226.945 253.655 222.475C258.673 218.413 257.841 208.482 257.954 202.706C258.617 168.815 243.171 139.032 215.594 119.626C222.568 115.917 229.54 112.057 237.255 110.107C246.22 107.843 255.765 108.105 264.949 107.976C278.589 107.784 302.284 107.587 309.215 92.4084C309.654 91.4487 309.884 90.5707 309.956 89.7598C310.967 78.4689 278.716 81.0136 273.016 81.0491Z" fill="#FFC9A6"/>
<path d="M134.023 92.461C132.656 89.8032 134.632 86.6807 136.034 84.3151C139.949 77.7159 147.44 70.3664 154.994 66.2316C155.264 66.0842 156.244 65.5379 156.385 65.4905C154.328 70.2388 151.873 74.7185 150.341 78.8217C150.391 78.7941 150.44 78.7691 150.491 78.7414C146.221 82.0588 142.51 85.6539 138.904 89.4557C137.702 90.7181 136.317 92.9086 134.023 92.461Z" fill="#F88D47"/>
<path d="M188.376 113.193C182.448 112.763 175.849 112.939 169.188 113.92C159.839 115.298 151.418 117.034 141.146 120.714C138.959 121.496 136.486 122.491 135.685 120.514C134.627 117.89 139.756 115.353 142.207 113.9C158.604 104.178 180.807 102.308 195.312 104.503C206.251 106.163 216.31 109.364 225.747 113.997C225.879 114.062 226.024 114.134 226.163 114.201C223.125 116.173 218.743 118.607 215.593 119.629C215.593 119.629 198.041 113.896 188.376 113.193Z" fill="#F88D47"/>
<path d="M172.156 96.9723C170.101 97.9622 166.793 99.7618 165.383 100.529C163.6 101.501 160.014 103.814 158.963 102.177C157.705 100.226 161.708 97.4818 163.265 96.2838C165.763 94.3698 167.889 92.7848 169.78 91.5053C175.453 87.6653 181.003 85.33 186.961 82.9605C201.603 77.1235 215.537 76.0704 228.059 74.6434C223.038 78.0542 216.392 82.8999 213.721 84.5323C212.146 84.81 210.306 84.9114 208.631 85.2365C197.125 87.46 184.615 90.9958 172.156 96.9723Z" fill="#F88D47"/>
<path d="M624.841 485.556C624.883 478.375 625.812 471.027 627.15 463.597C627.729 460.376 628.381 457.14 629.062 453.896C631.39 442.821 633.75 431.662 635.29 420.45C637.382 405.217 636.398 390.102 634.357 374.918C632.644 362.185 630.799 349.483 629.26 336.725C628.62 331.423 625.565 302.806 614.636 313.803C609.932 318.535 608.432 327.717 607.447 333.966C606.17 342.079 605.692 350.384 605.347 358.582C604.664 374.817 606.578 390.434 599.366 405.633C590.767 382.751 581.727 359.981 570.134 338.421C559.388 318.439 545.975 299.2 533.327 280.378C528.588 273.326 518.931 261.463 514.622 276.166C512.087 284.818 513.249 293.82 516.135 302.208C519.923 313.222 526.337 322.94 532.315 332.841C532.653 333.402 532.95 333.957 533.273 334.517C533.465 334.851 533.632 335.184 533.819 335.517C539.124 344.991 542.144 354.274 543.829 365.252C534.301 355.021 524.541 345.052 514.476 335.383C511.295 332.327 508.074 329.31 504.821 326.326C502.597 324.284 500.396 322.22 498.133 320.215C493.198 315.839 465.524 287.416 460.651 303.702C455.488 320.959 474.595 337.968 485.539 347.824C492.905 354.459 500.847 361.034 506.518 369.247C511.399 376.318 514.318 384.41 517.344 392.382C481.145 388.535 447.421 401.745 423.86 429.745C419.845 434.517 412.107 441.995 413.296 448.86C414.604 456.42 423.182 454.408 428.033 452.218C439.405 447.084 446.656 436.404 457.682 430.754C473.403 422.699 490.978 422.666 505.857 428.992C520.038 435.022 531.771 446.827 537.088 463.033C547.884 495.937 524.294 532.45 489.73 536.041C489.176 536.099 488.622 536.125 488.067 536.166C489.839 559.034 492.393 584.781 495.054 608.116C497.806 610.105 500.575 612.074 503.344 614.041C554.47 582.943 596.568 538.499 624.841 485.556Z" fill="#FFC9A6"/>
<path d="M602.92 428.313C605.92 427.126 606.535 423.184 607.078 420.266C608.591 412.121 607.733 400.825 604.535 392.095C604.421 391.783 604.014 390.644 603.934 390.505C602.228 395.823 601.036 401.208 599.364 405.63C599.342 405.572 599.321 405.517 599.3 405.459C600.41 411.191 600.868 416.75 601.093 422.401C601.172 424.282 600.739 427.045 602.92 428.313Z" fill="#F88D47"/>
<path d="M544.028 406.506C549.149 410.37 554.384 415.207 559.098 420.74C565.712 428.508 571.318 435.906 577.046 446.199C578.266 448.388 579.567 450.957 581.623 449.919C584.349 448.541 581.986 442.834 581.028 439.909C574.622 420.353 557.916 403.046 544.573 394.514C534.506 388.084 524.061 383.53 513.099 380.584C512.945 380.543 512.776 380.499 512.616 380.454C513.682 384.216 515.511 389.309 517.343 392.379C517.343 392.379 535.678 400.204 544.028 406.506Z" fill="#F88D47"/>
<path d="M568.738 404.863C569.703 407.128 571.111 410.943 571.71 412.568C572.469 414.625 573.738 419.054 575.754 418.472C578.163 417.782 576.864 412.706 576.451 410.625C575.783 407.294 575.183 404.495 574.556 402.111C572.679 394.958 569.832 389.114 566.676 382.954C558.933 367.802 548.364 357.038 539.207 346.974C540.859 353.315 542.814 361.977 543.822 365.202C544.904 366.547 546.326 367.939 547.456 369.393C555.221 379.382 562.867 391.15 568.738 404.863Z" fill="#F88D47"/>
</svg>
