<svg width="655" height="668" viewBox="0 0 655 668" fill="none" xmlns="http://www.w3.org/2000/svg">
<path d="M654.816 339.791C654.816 450.549 599.819 548.462 515.644 607.711L239.614 655.295C101.425 616.925 0 490.202 0 339.791C0 158.969 146.586 12.3835 327.407 12.3835C508.229 12.3835 654.816 158.969 654.816 339.791Z" fill="#FFF7F1"/>
<path d="M187.289 627.548C187.289 633.701 182.303 638.688 176.15 638.688C169.998 638.688 165.01 633.701 165.01 627.548C165.01 621.395 169.998 616.409 176.15 616.409C182.303 616.409 187.289 621.395 187.289 627.548Z" fill="white"/>
<path d="M291.391 88.9023C291.391 95.0552 286.404 100.042 280.251 100.042C274.1 100.042 269.112 95.0552 269.112 88.9023C269.112 82.7494 274.1 77.7628 280.251 77.7628C286.404 77.7628 291.391 82.7494 291.391 88.9023Z" fill="white"/>
<path d="M644.855 455.007C644.855 461.16 639.868 466.146 633.714 466.146C627.563 466.146 622.575 461.16 622.575 455.007C622.575 448.854 627.563 443.867 633.714 443.867C639.87 443.867 644.855 448.854 644.855 455.007Z" fill="white"/>
<path d="M371.549 21.1468C371.549 32.385 362.438 41.4945 351.203 41.4945C339.967 41.4945 330.855 32.385 330.855 21.1468C330.855 9.91132 339.967 0.801788 351.203 0.801788C362.438 0.800472 371.549 9.91132 371.549 21.1468Z" fill="#FFF7F1"/>
<path d="M475.659 468.777L309.69 329.803L160.074 508.48L326.042 647.455L475.659 468.777Z" fill="#1C1C1B"/>
<path fill-rule="evenodd" clip-rule="evenodd" d="M251.577 354.14C216.157 368.349 200.847 398.067 198.81 425.112C172.029 440.504 160.196 469.926 166.357 488.091C161.99 487.074 157.236 492.818 155.716 496.198C145.159 517.079 133.378 533.942 152.262 559.608C167.733 580.573 244.85 610.414 256.711 577.55C259.547 569.755 256.198 561.03 247.918 555.803C268.667 562.685 308.614 541.493 279.869 508.446C287.131 511.639 298.681 514.404 308.273 511.125C347.883 497.585 308.811 442.596 308.811 442.596C314.088 440.133 317.353 435.879 320.839 427.088C332.732 397.093 343.136 324.564 315.67 286.188C299.959 264.227 263.029 251.925 248.81 286.686C241.201 305.256 249.373 333.804 251.577 354.14Z" fill="#FFC9A6"/>
<path fill-rule="evenodd" clip-rule="evenodd" d="M251.577 354.14C239.231 367.767 240.544 396.421 260.539 425.675C277.209 450.093 311.637 465.375 318.585 485.942C323.099 499.259 315.366 509.52 306.129 511.774C344.067 502.518 333.974 464.191 308.812 442.596C308.812 442.596 303.033 445.335 295.437 440.271C270.007 423.316 260.783 381.197 251.577 354.14Z" fill="#FFF7F1"/>
<path fill-rule="evenodd" clip-rule="evenodd" d="M198.81 425.112C178.031 474.314 254.117 497.882 267.062 529.334C269.191 534.489 268.95 554.615 247.918 555.803C280.772 564.34 306.619 537.308 282.883 511.224C275.411 503.012 260.281 495.108 247.191 485.241C227.777 470.627 210.193 453.836 198.81 425.112Z" fill="#FFF7F1"/>
<path fill-rule="evenodd" clip-rule="evenodd" d="M166.357 488.091C158.332 528.141 222.591 554.977 235.479 570.703C242.362 579.103 237.106 594.616 226.83 592.128C250.188 597.785 274.179 572.792 247.922 555.812C219.461 541.109 188.175 527.884 166.357 488.091Z" fill="#FFF7F1"/>
<path d="M52.501 231.699C71.6599 191.887 106.459 159.689 151.853 145.121C182.21 135.375 213.328 134.803 242.199 141.835C242.597 141.939 242.989 142.054 243.381 142.148C271.315 149.173 297.105 163.32 318.037 183.245C337.585 201.86 352.897 225.483 361.729 253.011C389.895 340.753 341.594 434.725 253.844 462.887C166.092 491.053 72.1259 442.752 43.9614 355.003C30.3669 312.644 34.6307 268.852 52.501 231.699Z" fill="#FFC9A6"/>
<path d="M124.811 168.95C117.891 170.107 112.562 172.605 108.384 176.909C104.486 180.928 104.012 185.074 106.857 187.946C109.751 190.871 114.001 190.784 118.947 187.402C123.058 184.592 126.671 181.219 131.796 179.721C134.87 178.822 136.996 176.616 136.55 173.463C136.036 169.842 132.929 168.841 129.415 168.687C127.639 168.608 125.831 168.883 124.811 168.95Z" fill="#FFF7F1"/>
<path d="M96.6256 191.687C93.2622 192.619 90.6097 197.49 91.5943 200.727C92.3407 203.18 94.2456 204.206 97.01 203.49C100.393 202.613 102.919 197.847 101.804 194.61C100.988 192.239 99.2071 191.184 96.6256 191.687Z" fill="#FFF7F1"/>
<path d="M229.411 279.726C231.24 287.273 238.845 291.914 246.4 290.078C253.952 288.254 258.594 280.643 256.762 273.087C254.929 265.538 247.319 260.897 239.768 262.731C232.214 264.557 227.582 272.175 229.411 279.726Z" fill="#1C1C1B"/>
<path d="M123.246 310.006C125.076 317.562 132.686 322.198 140.236 320.363C147.798 318.535 152.427 310.919 150.598 303.372C148.765 295.828 141.161 291.185 133.61 293.015C126.049 294.851 121.418 302.459 123.246 310.006Z" fill="#1C1C1B"/>
<path d="M200.544 337.001C198.822 337.353 197.185 337.849 195.654 338.46C183.123 343.456 172.759 357.814 177.195 375.587C177.872 378.288 180.603 379.964 183.312 379.259C186.017 378.584 187.66 375.847 186.986 373.143C183.948 360.984 190.928 351.207 199.388 347.831C207.442 344.626 218.968 346.423 227.237 361.068C228.61 363.489 231.664 364.359 234.114 362.978C236.539 361.608 237.392 358.53 236.024 356.105C226.074 338.501 211.661 334.729 200.544 337.001Z" fill="#1C1C1B"/>
<path d="M148.047 368.034C153.867 384.145 145.526 401.923 129.416 407.742C113.306 413.562 95.5277 405.221 89.7079 389.111C83.888 373.001 92.2288 355.223 108.339 349.403C124.449 343.583 142.227 351.924 148.047 368.034Z" fill="#1C1C1B"/>
<path d="M320.175 341.928C327.452 326.421 320.779 307.95 305.272 300.674C289.764 293.397 271.294 300.069 264.018 315.577C256.741 331.084 263.413 349.554 278.921 356.831C294.428 364.108 312.898 357.435 320.175 341.928Z" fill="white"/>
<path d="M578.957 191.136C563.787 149.722 532.339 114.352 488.651 95.4712C459.435 82.8415 428.576 79.253 399.207 83.4366C398.801 83.5011 398.401 83.5774 398.001 83.634C369.565 87.9018 342.568 99.4533 319.838 117.218C298.61 133.815 281.104 155.799 269.657 182.292C233.155 266.734 272.021 364.787 356.471 401.286C440.922 437.789 538.97 398.921 575.472 314.474C593.088 273.706 593.104 229.783 578.957 191.136Z" fill="#F88D47"/>
<path d="M513.205 121.772C519.969 123.592 525.02 126.591 528.753 131.275C532.236 135.647 532.303 139.81 529.199 142.388C526.039 145.013 521.826 144.514 517.24 140.674C513.427 137.482 510.165 133.781 505.218 131.795C502.252 130.602 500.353 128.204 501.103 125.115C501.965 121.568 505.149 120.875 508.655 121.062C510.429 121.157 512.198 121.607 513.205 121.772Z" fill="#FFF7F1"/>
<path d="M539.001 147.098C542.253 148.35 544.414 153.448 543.123 156.567C542.144 158.931 540.152 159.767 537.474 158.786C534.198 157.587 532.151 152.606 533.572 149.499C534.614 147.223 536.486 146.348 539.001 147.098Z" fill="#FFF7F1"/>
<path d="M398.526 221.678C395.976 228.998 387.971 232.871 380.643 230.315C373.317 227.769 369.444 219.757 371.997 212.427C374.552 205.104 382.563 201.233 389.887 203.788C397.214 206.334 401.077 214.353 398.526 221.678Z" fill="#1C1C1B"/>
<path d="M501.066 262.068C498.514 269.397 490.503 273.265 483.182 270.709C475.845 268.159 471.985 260.142 474.535 252.821C477.089 245.503 485.096 241.629 492.42 244.18C499.752 246.739 503.616 254.747 501.066 262.068Z" fill="#1C1C1B"/>
<path d="M410.116 310.64C411.699 311.393 413.304 311.983 414.892 312.415C427.885 315.959 444.773 310.736 451.91 293.901C452.994 291.342 451.822 288.364 449.239 287.298C446.678 286.212 443.724 287.407 442.636 289.968C437.755 301.487 426.317 305.09 417.543 302.7C409.196 300.418 401.085 292.061 403.289 275.417C403.648 272.662 401.736 270.135 398.954 269.763C396.197 269.399 393.669 271.34 393.301 274.096C390.661 294.109 399.887 305.774 410.116 310.64Z" fill="white"/>
<path d="M509.098 359.799C525.211 354.076 533.633 336.374 527.91 320.26C522.187 304.147 504.485 295.725 488.372 301.448C472.259 307.171 463.836 324.873 469.559 340.986C475.283 357.099 492.984 365.522 509.098 359.799Z" fill="white"/>
<path d="M341.846 293.473C357.959 287.75 366.382 270.048 360.658 253.935C354.935 237.821 337.233 229.399 321.12 235.122C305.007 240.845 296.584 258.547 302.308 274.66C308.031 290.774 325.733 299.196 341.846 293.473Z" fill="white"/>
<path d="M499.707 494.975C488.688 453.58 469.886 420.101 438.051 379.603C415.15 350.481 374.831 294.067 346.816 319.119C331.9 332.458 342.159 359.576 350.498 377.029C360.699 398.388 379.322 414.804 386.563 433.705L386.561 433.706C366.139 448.155 347.617 464.785 331.135 482.376C329.769 493.104 324.979 506.913 306.796 511.59C306.603 511.645 306.411 511.702 306.216 511.752C306.186 511.76 306.159 511.769 306.13 511.775C306.15 511.77 306.168 511.764 306.188 511.758C306.146 511.769 306.104 511.775 306.063 511.786C301.137 518.135 296.463 524.52 292.064 530.894C291.003 540.911 286.296 548.278 277.519 553.492C265.792 573.088 256.741 591.975 250.619 608.608C245.398 622.789 241.815 638.547 239.628 655.282C267.566 663.04 297.001 667.202 327.41 667.202C397.474 667.202 462.389 645.181 515.636 607.702C513.234 573.02 510.56 535.752 499.707 494.975Z" fill="#FFC9A6"/>
<path d="M332.986 510.01C336.926 508.746 340.099 508.69 342.454 511.5C344.859 514.369 344.064 517.523 342.312 520.39C341.159 522.28 339.766 524.064 338.26 525.691C332.397 532.026 327.378 538.987 322.546 546.114C320.773 548.728 318.666 551.173 316.415 553.392C313.712 556.058 310.418 557.097 306.856 554.986C303.4 552.938 302.36 549.658 303.159 545.927C303.756 543.151 304.452 540.253 305.82 537.811C311.661 527.377 319.447 518.629 329.453 511.97C330.768 511.093 332.224 510.429 332.986 510.01Z" fill="#FFF7F1"/>
<path d="M293.992 565.707C297.576 564.475 301.274 566.594 301.549 570.478C301.898 575.409 300.263 579.903 296.582 583.263C293.111 586.43 288.1 585.022 286.578 580.75C284.976 576.257 289.4 567.287 293.992 565.707Z" fill="#FFF7F1"/>
</svg>
