<svg width="21" height="24" viewBox="0 0 21 24" fill="none" xmlns="http://www.w3.org/2000/svg">
<path d="M7.30224 4.50002C7.30224 4.29089 7.40808 3.84673 7.83781 3.44883C8.25285 3.06454 9.05605 2.64745 10.5715 2.64745C12.0869 2.64745 12.8901 3.06454 13.3051 3.44883C13.7349 3.84673 13.8407 4.29089 13.8407 4.50002H15.8022C15.8022 3.7647 15.4831 2.79219 14.6378 2.00953C13.7778 1.21327 12.456 0.685913 10.5715 0.685913C8.68689 0.685913 7.36509 1.21327 6.50513 2.00953C5.65986 2.79219 5.3407 3.7647 5.3407 4.50002H7.30224Z" fill="#22160F"/>
<path fill-rule="evenodd" clip-rule="evenodd" d="M7.30224 4.50002V6.71021H13.8407V4.50002H15.8022V6.71021H19.1711C19.7128 6.71021 20.1519 7.14931 20.1519 7.69097V21.0883C20.1519 21.8586 19.8433 22.5957 19.2967 23.138C18.7503 23.6799 18.0109 23.983 17.2416 23.983H3.73531C2.96602 23.983 2.22665 23.6799 1.68028 23.138C1.13363 22.5957 0.825073 21.8586 0.825073 21.0883V7.69097C0.825073 7.14931 1.26418 6.71021 1.80584 6.71021H5.3407V4.50002H7.30224ZM5.3407 11.5834V8.67174H2.78661V21.0883C2.78661 21.3332 2.88462 21.5697 3.06167 21.7453C3.23898 21.9212 3.48115 22.0215 3.73531 22.0215H17.2416C17.4958 22.0215 17.7379 21.9212 17.9153 21.7453C18.0923 21.5697 18.1903 21.3332 18.1903 21.0883V8.67174H15.8022V11.5834H13.8407V8.67174H7.30224V11.5834H5.3407Z" fill="#22160F"/>
</svg>
