<svg width="7" height="10" viewBox="0 0 7 10" fill="none" xmlns="http://www.w3.org/2000/svg">
<path d="M6.6373 0.00207105L5.17123 0C3.52414 0 2.45972 0.961486 2.45972 2.44964V3.57909H0.985653C0.858276 3.57909 0.755127 3.67001 0.755127 3.78215V5.4186C0.755127 5.53074 0.858393 5.62156 0.985653 5.62156H2.45972V9.75082C2.45972 9.86297 2.56287 9.95378 2.69025 9.95378H4.6135C4.74087 9.95378 4.84402 9.86287 4.84402 9.75082V5.62156H6.56756C6.69493 5.62156 6.79808 5.53074 6.79808 5.4186L6.79879 3.78215C6.79879 3.72831 6.77444 3.67674 6.73128 3.63863C6.68811 3.60052 6.6293 3.57909 6.56814 3.57909H4.84402V2.62164C4.84402 2.16145 4.96858 1.92784 5.64945 1.92784L6.63707 1.92753C6.76433 1.92753 6.86747 1.83661 6.86747 1.72456V0.205034C6.86747 0.0930938 6.76444 0.00227816 6.6373 0.00207105Z" fill="white"/>
</svg>
