<svg width="20" height="20" viewBox="0 0 20 20" fill="none" xmlns="http://www.w3.org/2000/svg">
<path d="M14.5 1H5.5C3.01472 1 1 3.01472 1 5.5V14.5C1 16.9853 3.01472 19 5.5 19H14.5C16.9853 19 19 16.9853 19 14.5V5.5C19 3.01472 16.9853 1 14.5 1Z" stroke="black" stroke-width="2" stroke-linecap="round" stroke-linejoin="round"/>
<path d="M13.6 9.43229C13.7111 10.1813 13.5832 10.9463 13.2344 11.6184C12.8857 12.2905 12.3339 12.8356 11.6575 13.176C10.9811 13.5164 10.2146 13.6349 9.46704 13.5146C8.71944 13.3943 8.02881 13.0414 7.49338 12.5059C6.95795 11.9705 6.60499 11.2799 6.48469 10.5323C6.36439 9.78469 6.48289 9.0182 6.82332 8.34183C7.16376 7.66546 7.7088 7.11366 8.38092 6.76491C9.05303 6.41616 9.81801 6.28822 10.567 6.39929C11.3311 6.51259 12.0384 6.86861 12.5846 7.41477C13.1307 7.96093 13.4867 8.66826 13.6 9.43229Z" stroke="black" stroke-width="2" stroke-linecap="round" stroke-linejoin="round"/>
<path d="M14.95 5.05029H14.9582" stroke="black" stroke-width="2" stroke-linecap="round" stroke-linejoin="round"/>
</svg>
