<svg width="12" height="10" viewBox="0 0 12 10" fill="none" xmlns="http://www.w3.org/2000/svg">
<path d="M7.84862 0H3.8504C2.01056 0 0.518555 1.31361 0.518555 2.93347V6.45364C0.518555 8.0735 2.01056 9.38711 3.8504 9.38711H7.84862C9.68846 9.38711 11.1805 8.0735 11.1805 6.45364V2.93347C11.1805 1.31361 9.68846 0 7.84862 0ZM10.1809 6.45364C10.1809 7.58596 9.13471 8.50707 7.84862 8.50707H3.8504C2.56431 8.50707 1.51811 7.58596 1.51811 6.45364V2.93347C1.51811 1.80115 2.56431 0.880042 3.8504 0.880042H7.84862C9.13471 0.880042 10.1809 1.80115 10.1809 2.93347V6.45364Z" fill="white"/>
<path d="M5.85059 2.34912C4.37858 2.34912 3.18511 3.39989 3.18511 4.6959C3.18511 5.99191 4.37858 7.04268 5.85059 7.04268C7.3226 7.04268 8.51607 5.99191 8.51607 4.6959C8.51607 3.39989 7.3226 2.34912 5.85059 2.34912ZM5.85059 6.16264C4.93233 6.16264 4.18467 5.50436 4.18467 4.6959C4.18467 3.88685 4.93233 3.22916 5.85059 3.22916C6.76885 3.22916 7.51651 3.88685 7.51651 4.6959C7.51651 5.50436 6.76885 6.16264 5.85059 6.16264Z" fill="white"/>
<path d="M8.72612 2.48113C8.92228 2.48113 9.0813 2.34112 9.0813 2.16842C9.0813 1.99572 8.92228 1.85571 8.72612 1.85571C8.52996 1.85571 8.37095 1.99572 8.37095 2.16842C8.37095 2.34112 8.52996 2.48113 8.72612 2.48113Z" fill="white"/>
</svg>
