<svg width="11" height="10" viewBox="0 0 11 10" fill="none" xmlns="http://www.w3.org/2000/svg">
<path d="M10.4106 9.50942L10.413 9.50906V6.31516C10.413 4.75268 10.031 3.54907 7.95628 3.54907C6.9589 3.54907 6.28959 4.03095 6.01634 4.48779H5.98749V3.69494H4.02036V9.50906H6.06869V6.63012C6.06869 5.87211 6.23189 5.13913 7.29809 5.13913C8.34863 5.13913 8.3643 6.00419 8.3643 6.67875V9.50942H10.4106Z" fill="white"/>
<path d="M0.690299 3.69238H2.7411V9.50651H0.690299V3.69238Z" fill="white"/>
<path d="M1.7078 0.801025C1.05209 0.801025 0.52002 1.26948 0.52002 1.84679C0.52002 2.4241 1.05209 2.90235 1.7078 2.90235C2.36351 2.90235 2.89559 2.4241 2.89559 1.84679C2.89517 1.26948 2.3631 0.801025 1.7078 0.801025Z" fill="white"/>
</svg>
