<svg width="15" height="15" viewBox="0 0 15 15" fill="none" xmlns="http://www.w3.org/2000/svg">
<path d="M3.64771 6.91709V4.24365C3.64771 3.35735 4.04279 2.50735 4.74605 1.88065C5.44932 1.25394 6.40314 0.901855 7.3977 0.901855C8.39227 0.901855 9.34609 1.25394 10.0494 1.88065C10.7526 2.50735 11.1477 3.35735 11.1477 4.24365V6.91709M2.14771 6.9165H12.6477C13.4761 6.9165 14.1477 7.51497 14.1477 8.25322V12.9317C14.1477 13.67 13.4761 14.2685 12.6477 14.2685H2.14771C1.31928 14.2685 0.647705 13.67 0.647705 12.9317V8.25322C0.647705 7.51497 1.31928 6.9165 2.14771 6.9165Z" stroke="white" stroke-width="1.06938" stroke-linecap="round" stroke-linejoin="round"/>
</svg>
