<svg width="19" height="26" viewBox="0 0 19 26" fill="none" xmlns="http://www.w3.org/2000/svg">
<path fill-rule="evenodd" clip-rule="evenodd" d="M9.69669 0.625854C6.21678 0.625854 3.39575 3.44688 3.39575 6.92679C3.39575 10.4067 6.21678 13.2277 9.69669 13.2277C13.1766 13.2277 15.9976 10.4067 15.9976 6.92679C15.9976 3.44688 13.1766 0.625854 9.69669 0.625854ZM5.35729 6.92679C5.35729 4.53021 7.30011 2.58739 9.69669 2.58739C12.0933 2.58739 14.0361 4.53021 14.0361 6.92679C14.0361 9.32338 12.0933 11.2662 9.69669 11.2662C7.30011 11.2662 5.35729 9.32338 5.35729 6.92679Z" fill="#22160F"/>
<path d="M3.96811 18.3507C4.78191 17.5369 5.88565 17.0797 7.03653 17.0797H12.3567C13.5076 17.0797 14.6113 17.5369 15.4251 18.3507C16.2389 19.1645 16.6961 20.2682 16.6961 21.4191V24.0792C16.6961 24.6208 17.1352 25.06 17.6769 25.06C18.2185 25.06 18.6576 24.6208 18.6576 24.0792V21.4191C18.6576 19.748 17.9938 18.1453 16.8121 16.9637C15.6305 15.782 14.0278 15.1182 12.3567 15.1182H7.03653C5.36542 15.1182 3.76275 15.782 2.5811 16.9637C1.39944 18.1453 0.735596 19.748 0.735596 21.4191V24.0792C0.735596 24.6208 1.1747 25.06 1.71636 25.06C2.25803 25.06 2.69713 24.6208 2.69713 24.0792V21.4191C2.69713 20.2682 3.15432 19.1645 3.96811 18.3507Z" fill="#22160F"/>
</svg>
