<svg width="25" height="24" viewBox="0 0 25 24" fill="none" xmlns="http://www.w3.org/2000/svg">
<path fill-rule="evenodd" clip-rule="evenodd" d="M10.3205 0.138794C5.16836 0.138794 0.991699 4.31546 0.991699 9.46763C0.991699 14.6198 5.16836 18.7965 10.3205 18.7965C12.5433 18.7965 14.5846 18.0191 16.1872 16.7213L22.7455 23.2796C23.1285 23.6626 23.7495 23.6626 24.1325 23.2796C24.5155 22.8966 24.5155 22.2756 24.1325 21.8926L17.5742 15.3343C18.872 13.7317 19.6494 11.6904 19.6494 9.46763C19.6494 4.31546 15.4727 0.138794 10.3205 0.138794ZM2.95324 9.46763C2.95324 5.39878 6.25169 2.10033 10.3205 2.10033C14.3894 2.10033 17.6878 5.39878 17.6878 9.46763C17.6878 13.5365 14.3894 16.8349 10.3205 16.8349C6.25169 16.8349 2.95324 13.5365 2.95324 9.46763Z" fill="#22160F"/>
</svg>
