<svg width="13" height="10" viewBox="0 0 13 10" fill="none" xmlns="http://www.w3.org/2000/svg">
<path d="M12.3825 1.8321C11.9297 2.00697 11.4473 2.12287 10.9443 2.17915C11.4617 1.90714 11.8567 1.4797 12.0423 0.964497C11.5599 1.21774 11.0272 1.39663 10.4596 1.49645C10.0015 1.067 9.34857 0.801025 8.63632 0.801025C7.25443 0.801025 6.14192 1.78856 6.14192 2.99919C6.14192 3.17338 6.15866 3.34087 6.19976 3.50032C4.12464 3.41122 2.28847 2.53557 1.05497 1.20167C0.839625 1.53062 0.713307 1.90714 0.713307 2.31247C0.713307 3.07355 1.15846 3.74821 1.82201 4.1388C1.42099 4.1321 1.02758 4.02959 0.694283 3.86813C0.694283 3.87483 0.694283 3.88354 0.694283 3.89225C0.694283 4.96018 1.55948 5.84721 2.69406 6.05155C2.49089 6.10046 2.26945 6.12391 2.03964 6.12391C1.87984 6.12391 1.71852 6.11587 1.56709 6.08639C1.8905 6.95668 2.8082 7.5965 3.8994 7.61727C3.05018 8.20215 1.97192 8.55455 0.804621 8.55455C0.599926 8.55455 0.4036 8.54651 0.207275 8.5244C1.31294 9.15216 2.62329 9.51059 4.03637 9.51059C8.62947 9.51059 11.1406 6.16076 11.1406 3.25712C11.1406 3.15998 11.1368 3.06618 11.1315 2.97306C11.6268 2.66353 12.0431 2.27696 12.3825 1.8321Z" fill="white"/>
</svg>
