<svg width="52" height="52" viewBox="0 0 52 52" fill="none" xmlns="http://www.w3.org/2000/svg">
<path d="M51.6546 30.1576C53.9521 15.9849 44.3253 2.63312 30.1526 0.335618C15.9799 -1.96189 2.62812 7.66489 0.330613 21.8376C-1.96689 36.0104 7.65988 49.3621 21.8326 51.6596C36.0053 53.9571 49.3571 44.3304 51.6546 30.1576Z" fill="#F88D47"/>
<path d="M40.9499 27.7063L38.1062 21.3688C38.1062 21.1251 38.1062 21.0438 38.1874 20.8001V20.7188C38.3499 16.6563 37.1312 13.1626 34.6124 10.7251C32.0937 8.28756 28.4374 7.23131 24.2937 7.55631C16.2499 8.45006 10.8874 13.8126 10.8874 21.0438C10.8874 24.7001 12.2687 28.7626 14.5437 31.9313C16.1687 34.2063 17.0624 36.8876 17.0624 39.8126V43.8751C17.0624 44.2001 17.3062 44.4438 17.6312 44.4438H32.3374C32.6624 44.4438 32.9062 44.2001 32.9062 43.8751V36.7251C32.9062 36.3188 33.2312 35.9938 33.6374 35.9938H35.9937C37.4562 35.9938 38.6749 34.7751 38.6749 33.3126V29.5751L40.1374 29.4126C40.5437 29.3313 40.9499 29.2501 41.1124 28.9251C41.1937 28.5188 41.1124 28.0313 40.9499 27.7063ZM31.2812 28.6001C30.8749 29.0063 30.3062 29.2501 29.5749 29.2501C28.1937 29.2501 26.3249 28.4376 24.5374 27.1376C22.7499 28.4376 20.9624 29.2501 19.4999 29.2501C18.8499 29.2501 18.2812 29.0876 17.7937 28.6001C16.9812 27.7876 16.9812 26.3251 17.7937 24.3751C18.1187 23.5626 18.6874 22.7501 19.2562 21.8563C17.3874 19.2563 16.4124 16.4938 17.7937 15.1938C19.0937 13.8938 21.8562 14.7876 24.4562 16.6563C27.1374 14.7876 29.8187 13.8126 31.1187 15.1938C32.4999 16.5751 31.5249 19.2563 29.6562 21.9376C31.6874 24.5376 32.6624 27.2188 31.2812 28.6001Z" fill="white"/>
<path d="M20.0687 22.8313C19.5812 23.5626 19.1749 24.2126 18.9312 24.8626C18.2812 26.2438 18.1999 27.3813 18.6874 27.7876C19.1749 28.2751 20.2312 28.1938 21.6124 27.5438C22.2624 27.2188 22.9124 26.8938 23.6437 26.4063C22.9937 25.9188 22.3437 25.3501 21.7749 24.7001C21.2062 24.1313 20.5562 23.4813 20.0687 22.8313Z" fill="white"/>
<path d="M29.5749 15.6813C29.0062 15.6813 28.3562 15.8438 27.5437 16.2501C26.8937 16.5751 26.2437 16.9001 25.5124 17.3876C26.1624 17.8751 26.8124 18.5251 27.3812 19.0938C27.9499 19.6626 28.5999 20.3126 29.0874 20.9626C30.7124 18.6063 31.1187 16.6563 30.4687 16.0063C30.3062 15.7626 29.9812 15.6813 29.5749 15.6813Z" fill="white"/>
<path d="M27.4624 24.7001C26.8937 25.2688 26.2437 25.8376 25.5937 26.4063C27.9499 28.0313 29.8999 28.4376 30.5499 27.7876C31.1999 27.1376 30.7124 25.1063 29.1687 22.8313C28.5999 23.4813 28.0312 24.1313 27.4624 24.7001Z" fill="white"/>
<path d="M21.7749 19.0126C22.3437 18.4438 22.9937 17.8751 23.6437 17.3063C22.9124 16.8188 22.2624 16.4126 21.6124 16.1688C20.7999 15.8438 20.1499 15.6001 19.5812 15.6001C19.1749 15.6001 18.8499 15.6813 18.6874 15.9251C18.0374 16.5751 18.5249 18.6063 20.0687 20.8813C20.5562 20.3126 21.1249 19.6626 21.7749 19.0126Z" fill="white"/>
<path d="M28.4374 21.8563C27.9499 21.2063 27.2999 20.4751 26.6499 19.8251C25.9999 19.1751 25.2687 18.5251 24.6187 18.0376C23.9687 18.6063 23.2374 19.1751 22.5874 19.8251C21.9374 20.4751 21.2874 21.2063 20.7999 21.8563C21.2874 22.5063 21.9374 23.2376 22.5874 23.8876C23.2374 24.5376 23.9687 25.1876 24.6187 25.6751C25.3499 25.1063 25.9999 24.5376 26.6499 23.8876C27.2999 23.2376 27.9499 22.5876 28.4374 21.8563Z" fill="white"/>
</svg>
