<svg width="175" height="54" viewBox="0 0 175 54" fill="none" xmlns="http://www.w3.org/2000/svg">
<path d="M65.8065 43H59.4084L73.0214 11.2364H77.9674L91.5804 43H85.1823L82.6866 37.0103H68.3022L65.8065 43ZM80.327 31.429L75.5171 19.9033L70.6618 31.429H80.327ZM92.2436 43V19.4042H97.9157V22.2629C99.64 19.9033 102 18.7236 104.994 18.7236C107.657 18.7236 109.865 19.6008 111.619 21.3554C113.404 23.1402 114.297 25.3334 114.297 27.935V43H108.625V29.5232C108.625 27.9804 108.11 26.6947 107.082 25.6662C106.083 24.6376 104.828 24.1234 103.315 24.1234C101.773 24.1234 100.487 24.6376 99.4585 25.6662C98.43 26.6947 97.9157 27.9804 97.9157 29.5232V43H92.2436ZM132.758 43L127.177 35.3767L121.641 43H114.971L123.819 30.8845L115.47 19.4042H122.095L127.177 26.3922L132.304 19.4042H138.929L130.535 30.8845L139.383 43H132.758ZM146.539 44.1798L147.174 42.5462L138.099 19.4042H143.952L149.987 35.3314L156.159 19.4042H162.012L151.349 46.0856C150.35 48.5662 149.034 50.3661 147.401 51.4854C145.767 52.635 143.65 53.2097 141.048 53.2097H140.141V47.8099H141.048C143.741 47.8099 145.571 46.5999 146.539 44.1798Z" fill="#22160F"/>
<path d="M162.463 38.904C162.463 37.496 162.932 36.3227 163.871 35.384C164.809 34.4027 166.004 33.912 167.455 33.912C168.905 33.912 170.1 34.4027 171.039 35.384C171.977 36.3227 172.447 37.496 172.447 38.904C172.447 40.3547 171.977 41.5707 171.039 42.552C170.1 43.4907 168.905 43.96 167.455 43.96C166.004 43.96 164.809 43.4907 163.871 42.552C162.932 41.5707 162.463 40.3547 162.463 38.904Z" fill="#F88D47"/>
<g clip-path="url(#clip0_56_4323)">
<path d="M51.6547 30.1575C53.9522 15.9848 44.3254 2.63302 30.1527 0.33551C15.9799 -1.96199 2.62816 7.66478 0.330655 21.8375C-1.96685 36.0102 7.65992 49.362 21.8327 51.6595C36.0054 53.957 49.3572 44.3302 51.6547 30.1575Z" fill="#F88D47"/>
<path d="M40.9499 27.7063L38.1062 21.3688C38.1062 21.125 38.1062 21.0438 38.1874 20.8V20.7188C38.3499 16.6563 37.1312 13.1625 34.6124 10.725C32.0937 8.2875 28.4374 7.23125 24.2937 7.55625C16.25 8.45 10.8875 13.8125 10.8875 21.0438C10.8875 24.7 12.2687 28.7625 14.5437 31.9313C16.1687 34.2063 17.0625 36.8875 17.0625 39.8125V43.875C17.0625 44.2 17.3062 44.4438 17.6312 44.4438H32.3374C32.6624 44.4438 32.9062 44.2 32.9062 43.875V36.725C32.9062 36.3188 33.2312 35.9938 33.6375 35.9938H35.9937C37.4562 35.9938 38.6749 34.775 38.6749 33.3125V29.575L40.1374 29.4125C40.5437 29.3313 40.9499 29.25 41.1124 28.925C41.1937 28.5188 41.1124 28.0313 40.9499 27.7063ZM31.2812 28.6C30.875 29.0063 30.3062 29.25 29.575 29.25C28.1937 29.25 26.325 28.4375 24.5375 27.1375C22.75 28.4375 20.9625 29.25 19.5 29.25C18.85 29.25 18.2812 29.0875 17.7937 28.6C16.9812 27.7875 16.9812 26.325 17.7937 24.375C18.1187 23.5625 18.6875 22.75 19.2562 21.8563C17.3875 19.2563 16.4125 16.4938 17.7937 15.1938C19.0937 13.8938 21.8562 14.7875 24.4562 16.6563C27.1375 14.7875 29.8187 13.8125 31.1187 15.1938C32.4999 16.575 31.5249 19.2563 29.6562 21.9375C31.6874 24.5375 32.6624 27.2188 31.2812 28.6Z" fill="white"/>
<path d="M20.0687 22.8313C19.5812 23.5625 19.1749 24.2125 18.9312 24.8625C18.2812 26.2438 18.1999 27.3813 18.6874 27.7875C19.1749 28.275 20.2312 28.1938 21.6124 27.5438C22.2624 27.2188 22.9124 26.8938 23.6437 26.4063C22.9937 25.9188 22.3437 25.35 21.7749 24.7C21.2062 24.1313 20.5562 23.4813 20.0687 22.8313Z" fill="white"/>
<path d="M29.575 15.6813C29.0062 15.6813 28.3562 15.8438 27.5437 16.25C26.8937 16.575 26.2437 16.9 25.5125 17.3875C26.1625 17.875 26.8125 18.525 27.3812 19.0938C27.95 19.6625 28.6 20.3125 29.0875 20.9625C30.7125 18.6063 31.1187 16.6563 30.4687 16.0063C30.3062 15.7625 29.9812 15.6813 29.575 15.6813Z" fill="white"/>
<path d="M27.4625 24.7C26.8937 25.2688 26.2438 25.8375 25.5938 26.4063C27.95 28.0313 29.9 28.4375 30.55 27.7875C31.2 27.1375 30.7125 25.1063 29.1688 22.8313C28.6 23.4813 28.0312 24.1313 27.4625 24.7Z" fill="white"/>
<path d="M21.775 19.0125C22.3437 18.4437 22.9937 17.875 23.6437 17.3062C22.9125 16.8187 22.2625 16.4125 21.6125 16.1687C20.8 15.8437 20.15 15.6 19.5812 15.6C19.175 15.6 18.85 15.6812 18.6875 15.925C18.0375 16.575 18.525 18.6062 20.0687 20.8812C20.5562 20.3125 21.125 19.6625 21.775 19.0125Z" fill="white"/>
<path d="M28.4375 21.8562C27.95 21.2062 27.3 20.475 26.65 19.825C26 19.175 25.2688 18.525 24.6188 18.0375C23.9688 18.6062 23.2375 19.175 22.5875 19.825C21.9375 20.475 21.2875 21.2062 20.8 21.8562C21.2875 22.5062 21.9375 23.2375 22.5875 23.8875C23.2375 24.5375 23.9688 25.1875 24.6188 25.675C25.35 25.1062 26 24.5375 26.65 23.8875C27.3 23.2375 27.95 22.5875 28.4375 21.8562Z" fill="white"/>
</g>
<defs>
<clipPath id="clip0_56_4323">
<rect width="52" height="52" fill="white"/>
</clipPath>
</defs>
</svg>
