<svg width="118" height="35" viewBox="0 0 118 35" fill="none" xmlns="http://www.w3.org/2000/svg">
<path d="M57.1171 13.9979C59.5861 11.4011 63.7561 11.2658 66.2915 12.6463C67.013 13.0396 67.6857 13.5068 68.193 14.1494C68.5149 14.5553 68.6602 14.4576 68.9834 14.1607C71.624 11.7431 74.7155 11.1468 78.0375 12.298C80.6919 13.2187 81.8556 15.4296 82.279 18.0877C82.3765 18.7898 82.4183 19.4985 82.4042 20.2072C82.4042 24.6716 82.393 29.1361 82.413 33.6005C82.413 34.0727 82.2965 34.1867 81.8318 34.1767C80.2259 34.1454 78.6187 34.1429 77.0129 34.1767C76.4642 34.1879 76.2801 34.074 76.2851 33.4752C76.3151 29.4079 76.3014 25.3405 76.3001 21.2719C76.3141 20.7715 76.272 20.2711 76.1748 19.78C75.8341 18.2769 74.9222 17.3675 73.6295 17.2472C71.986 17.0931 70.6231 17.856 70.0281 19.2652C69.8588 19.6684 69.7736 20.1019 69.7776 20.5392C69.7864 24.8783 69.7776 29.2175 69.7926 33.5566C69.7926 34.0289 69.6987 34.1829 69.1914 34.1767C67.5228 34.1416 65.8518 34.1479 64.1808 34.1767C63.7373 34.1842 63.6309 34.0514 63.6321 33.6205C63.6497 29.5745 63.6434 25.5272 63.6396 21.4799C63.6588 20.9169 63.6189 20.3535 63.5206 19.7988C63.2576 18.5362 62.635 17.5591 61.311 17.2935C59.9331 17.023 58.6967 17.38 57.8036 18.5462C57.3475 19.1214 57.1037 19.8364 57.1134 20.5705C57.1297 24.9096 57.1134 29.2488 57.1322 33.5879C57.1322 34.0426 57.0432 34.1854 56.5597 34.1754C54.8912 34.1416 53.2214 34.1491 51.5491 34.1754C51.1458 34.1754 51.0205 34.0815 51.0205 33.6619C51.0347 26.6947 51.0347 19.727 51.0205 12.759C51.0205 12.3444 51.1458 12.2379 51.5491 12.2442C53.2389 12.2667 54.9313 12.2692 56.6186 12.2442C57.0482 12.2366 57.156 12.3782 57.1196 12.7715C57.0921 13.1398 57.1171 13.5156 57.1171 13.9979Z" fill="white"/>
<path d="M16.0169 13.215C16.0833 12.2617 16.0833 12.2617 17.0403 12.2617C18.5435 12.2617 20.0466 12.273 21.5498 12.2542C21.9319 12.2542 22.0922 12.3156 22.0922 12.7552C22.0772 19.7425 22.0772 26.7297 22.0922 33.717C22.0922 34.1917 21.9131 34.2531 21.5097 34.2481C19.9452 34.2281 18.3781 34.2043 16.8161 34.2569C16.171 34.2794 15.9392 34.094 16.0495 33.469C16.0533 33.3676 16.0441 33.2661 16.0219 33.1671C9.93155 36.0055 4.37232 33.1671 2.03488 29.7924C-0.821142 25.6712 -0.665814 19.9429 2.46955 16.0434C5.26545 12.5623 10.6405 10.5832 16.0169 13.215ZM10.99 17.9637C8.09141 17.9424 5.80659 20.2185 5.79532 23.1447C5.78405 26.0884 8.02377 28.3795 10.9249 28.392C13.7634 28.4045 16.0094 26.1548 16.0369 23.2699C16.0657 20.2887 13.8736 17.985 10.99 17.9637Z" fill="white"/>
<path d="M40.2882 32.1799C39.177 33.3224 37.7572 34.1167 36.2021 34.466C33.0705 35.185 29.8136 34.1027 28.1401 31.759C27.1903 30.418 26.6855 28.8126 26.6971 27.1693C26.6532 22.3304 26.6795 17.4902 26.667 12.6512C26.667 12.313 26.771 12.2353 27.0929 12.2378C28.824 12.2528 30.5564 12.2666 32.2876 12.2315C32.8175 12.2203 32.7786 12.4933 32.7774 12.8466C32.7724 16.9386 32.7724 21.0272 32.7774 25.1125C32.7642 25.5501 32.7928 25.988 32.8626 26.4202C33.2546 28.4069 34.6589 29.3965 36.732 29.1761C38.775 28.9644 40.2206 27.4875 40.2206 25.6098C40.2206 21.3508 40.2294 17.0993 40.2093 12.8428C40.2093 12.3505 40.3346 12.2165 40.8256 12.2278C42.4728 12.2591 44.1226 12.2553 45.7711 12.2278C46.212 12.2203 46.3723 12.2967 46.3711 12.7927C46.3527 19.7399 46.3527 26.6866 46.3711 33.633C46.3711 34.0225 46.2984 34.1678 45.87 34.1603C44.1802 34.134 42.4879 34.1365 40.7993 34.1603C40.3884 34.1603 40.2532 34.0538 40.2857 33.643C40.3158 33.2221 40.2882 32.7849 40.2882 32.1799Z" fill="white"/>
<path d="M92.9492 14.232C95.8441 11.3209 100.063 11.282 102.72 12.6136C104.908 13.7122 106.016 15.5823 106.451 17.9198C106.565 18.5774 106.616 19.2442 106.606 19.9115C106.606 24.4586 106.597 29.0057 106.614 33.5528C106.614 34.0225 106.524 34.1866 106.014 34.1791C104.367 34.1428 102.717 34.149 101.07 34.1791C100.629 34.1866 100.521 34.0651 100.523 33.6292C100.54 29.5205 100.534 25.4106 100.533 21.3019C100.533 20.5679 100.461 19.8439 100.157 19.1662C99.4241 17.564 97.6015 16.8926 95.6912 17.4438C94.3058 17.8446 92.8941 19.3428 92.9354 21.1717C93.0206 25.2991 92.9542 29.4303 92.973 33.5603C92.973 34.0325 92.8791 34.1929 92.3717 34.1866C90.7032 34.1503 89.0334 34.1603 87.3612 34.1866C86.9691 34.1866 86.8789 34.0789 86.8801 33.6993C86.8918 26.7121 86.8918 19.7244 86.8801 12.7364C86.8801 12.3418 86.9979 12.2516 87.3749 12.2566C89.086 12.2766 90.7972 12.2741 92.5108 12.2566C92.859 12.2566 92.9905 12.3455 92.968 12.7063C92.9267 13.1648 92.9492 13.6408 92.9492 14.232Z" fill="white"/>
<path d="M111.079 23.1609C111.079 19.7625 111.098 16.3628 111.061 12.9632C111.054 12.3368 111.239 12.2216 111.813 12.2379C113.376 12.2805 114.944 12.273 116.505 12.2379C117.006 12.2266 117.174 12.3256 117.173 12.8642C117.152 19.7679 117.152 26.6708 117.173 33.5729C117.173 34.0226 117.09 34.1804 116.598 34.1704C114.972 34.1345 113.344 34.1345 111.713 34.1704C111.212 34.1804 111.051 34.0815 111.056 33.5441C111.093 30.083 111.079 26.6207 111.079 23.1609Z" fill="white"/>
<path d="M110.837 4.15201C110.85 2.28432 112.36 0.825005 114.259 0.846299C115.151 0.860917 116.001 1.22929 116.622 1.87037C117.242 2.51146 117.582 3.37272 117.568 4.26474C117.553 5.15675 117.185 6.00642 116.544 6.62684C115.903 7.24725 115.041 7.58761 114.149 7.57299C112.254 7.53917 110.825 6.06355 110.837 4.15201Z" fill="white"/>
</svg>
