<svg width="216" height="38" viewBox="0 0 216 38" fill="none" xmlns="http://www.w3.org/2000/svg">
<path d="M97.5406 16.5922C97.5325 20.6948 97.5244 24.7968 97.5164 28.8984C97.5164 30.0983 97.5073 30.1074 96.2877 30.1074C95.4066 30.1074 94.5256 30.0953 93.6445 30.1074C93.0808 30.1165 92.8269 29.8943 92.8269 29.3034C92.837 22.7082 92.837 16.1141 92.8269 9.52093C92.8269 8.8998 93.0687 8.67159 93.6793 8.6867C94.8369 8.71391 95.996 8.71995 97.1552 8.6867C97.7597 8.66706 98.1224 8.89072 98.4337 9.40153C99.9556 11.8921 101.506 14.3661 103.051 16.8431C103.571 17.6758 103.581 17.6743 104.101 16.8431C105.63 14.3857 107.175 11.9375 108.671 9.46049C109.017 8.89074 109.41 8.65947 110.069 8.68818C111.127 8.73352 112.185 8.68823 113.243 8.70183C114.245 8.70183 114.269 8.72747 114.27 9.70829C114.27 13.4572 114.27 17.2073 114.27 20.9582C114.27 23.7012 114.251 26.4457 114.284 29.1886C114.284 29.8838 114.05 30.1422 113.377 30.121C112.446 30.0908 111.514 30.0833 110.584 30.121C109.841 30.1543 109.572 29.8943 109.579 29.1236C109.611 25.223 109.593 21.3224 109.593 17.4203V16.4909C109.14 16.6965 109.037 17.0244 108.863 17.2858C107.293 19.6565 105.728 22.0307 104.166 24.4084C103.525 25.3786 103.512 25.3696 102.886 24.4266C101.147 21.807 99.403 19.1875 97.6539 16.568L97.5965 16.5393L97.5406 16.5922Z" fill="#F3F3F3"/>
<path d="M118.778 19.3757C118.778 16.1798 118.778 12.9835 118.778 9.78662C118.778 8.72874 118.804 8.70457 119.814 8.70306C122.86 8.70306 125.906 8.70306 128.951 8.70306C130.392 8.68466 131.816 9.01656 133.101 9.67025C136.497 11.4294 136.577 16.4241 133.8 18.3873C133.116 18.8694 133.129 18.9192 133.881 19.2789C136.187 20.3821 137.137 22.2335 136.936 24.7362C136.744 27.1179 135.405 28.5914 133.24 29.4135C131.901 29.9213 130.504 30.0754 129.087 30.0784C126.016 30.0855 122.943 30.0855 119.868 30.0784C118.81 30.0784 118.78 30.0301 118.771 28.9601C118.771 28.9087 118.771 28.8589 118.771 28.809C118.775 25.6625 118.777 22.5181 118.778 19.3757ZM126.737 25.9422C127.492 25.9422 128.248 25.9422 129.004 25.9422C129.634 25.9516 130.261 25.8434 130.852 25.6232C131.792 25.2499 132.253 24.576 132.247 23.5967C132.247 22.6521 131.793 21.9962 130.887 21.6199C130.373 21.4081 129.824 21.2963 129.268 21.2904C127.532 21.2678 125.792 21.2799 124.062 21.2633C123.592 21.2633 123.359 21.4431 123.362 21.9252C123.362 23.0314 123.371 24.1377 123.362 25.25C123.362 25.7668 123.592 25.9663 124.098 25.9557C124.976 25.9255 125.856 25.9391 126.737 25.9391V25.9422ZM126.114 17.3279V17.2599C126.966 17.2599 127.819 17.2735 128.671 17.2524C128.947 17.2313 129.218 17.1717 129.477 17.0755C130.642 16.7007 131.174 15.8952 131.032 14.7451C130.915 13.8021 130.226 13.1432 129.067 12.9588C127.372 12.6883 125.659 12.8606 123.955 12.8364C123.554 12.8364 123.362 13.0646 123.362 13.456C123.362 14.5351 123.362 15.6141 123.362 16.6932C123.362 17.1239 123.557 17.337 124.003 17.3309C124.707 17.3173 125.411 17.3264 126.114 17.3264V17.3279Z" fill="#F3F3F3"/>
<path d="M201.306 16.9066V20.1437C201.306 23.1391 201.283 26.1344 201.321 29.1297C201.332 29.9065 201.048 30.1528 200.312 30.1226C199.356 30.0818 198.398 30.0999 197.44 30.1135C196.866 30.1226 196.636 29.8763 196.638 29.2944C196.648 22.7003 196.648 16.1061 196.638 9.51193C196.638 8.8772 196.908 8.6747 197.505 8.69283C198.385 8.72004 199.269 8.73666 200.148 8.69283C200.807 8.65505 201.206 8.9271 201.593 9.43489C204.458 13.2312 207.337 17.0179 210.23 20.7951C210.408 21.0293 210.602 21.2485 210.835 21.5507C211.026 21.1805 210.967 20.8797 210.967 20.5941C210.967 16.967 210.967 13.3425 210.967 9.72047C210.967 8.73663 210.992 8.71703 211.992 8.71099C212.899 8.71099 213.806 8.74422 214.712 8.69888C215.436 8.66261 215.668 8.93465 215.665 9.65553C215.639 14.2105 215.652 18.7669 215.652 23.3219C215.652 25.2865 215.625 27.2512 215.666 29.2158C215.68 29.9292 215.399 30.1226 214.738 30.1377C211.694 30.1982 211.696 30.2088 209.855 27.7892C207.218 24.3254 204.578 20.8621 201.938 17.3992C201.787 17.2073 201.628 17.0275 201.472 16.8416L201.306 16.9066Z" fill="#F3F3F3"/>
<path d="M140.84 19.3368C140.84 16.142 140.84 12.9466 140.84 9.75079C140.84 8.73068 140.872 8.70197 141.91 8.6929C144.88 8.6929 147.852 8.6929 150.827 8.6929C152.463 8.6929 154.043 8.97549 155.472 9.80518C159.773 12.2942 159.822 19.1222 155.564 21.7442C155.334 21.8982 155.091 22.0318 154.837 22.1432C154.287 22.3593 154.254 22.657 154.578 23.1195C155.616 24.6051 156.63 26.1057 157.653 27.6004C158.093 28.2442 158.525 28.8941 158.971 29.5348C159.225 29.8975 159.152 30.1015 158.7 30.1C157.189 30.1 155.678 30.0743 154.166 30.0622C153.748 30.0622 153.562 29.76 153.361 29.4577C152.131 27.617 150.884 25.7868 149.677 23.9295C149.352 23.4308 148.98 23.1965 148.38 23.2313C147.703 23.2706 147.02 23.2585 146.343 23.2313C145.765 23.2116 145.534 23.4444 145.542 24.0323C145.566 25.7174 145.524 27.4039 145.56 29.089C145.575 29.7917 145.357 30.106 144.62 30.0758C143.665 30.035 142.707 30.0426 141.748 30.0758C141.064 30.097 140.825 29.8189 140.83 29.1389C140.854 25.8745 140.842 22.6072 140.84 19.3368ZM145.551 15.947C145.551 16.751 145.558 17.5565 145.551 18.365C145.551 18.7897 145.702 19.0405 146.155 19.0405C147.84 19.0405 149.531 19.1645 151.209 18.971C152.797 18.7866 153.817 17.6472 153.852 16.1646C153.897 14.2649 152.815 13.13 150.689 13.0015C149.21 12.9123 147.721 12.9789 146.235 12.9517C145.7 12.9426 145.53 13.1874 145.542 13.6846C145.564 14.4357 145.551 15.1914 145.551 15.947Z" fill="#F3F3F3"/>
<path d="M18.4221 37.877H17.2131C16.004 37.877 15.995 37.8771 16.0751 36.6408C16.2785 33.1948 17.3249 29.8513 19.1222 26.9041C20.9196 23.9568 23.4129 21.4959 26.3834 19.7373C27.1391 19.2839 27.1391 19.2476 26.3834 18.7806C20.2134 14.946 16.7834 9.41226 16.0932 2.17932C15.9527 0.693743 15.9617 0.692255 17.4246 0.692255C18.3314 0.692255 19.2382 0.704345 20.1449 0.692255C20.6346 0.684699 20.8386 0.855484 20.8915 1.38443C21.5821 8.17607 24.9477 13.0468 31.3102 15.7188C32.9726 16.417 34.7347 16.7117 36.5195 16.8704C36.9835 16.9112 37.2087 17.0472 37.2026 17.5383C37.186 18.696 37.183 19.8536 37.2026 21.0142C37.2132 21.5402 36.985 21.6913 36.4832 21.7246C28.3224 22.2792 22.368 27.7138 21.0683 35.7688C21.029 36.0152 20.9731 36.2614 20.9172 36.5048C20.8205 36.9158 21.0683 37.4463 20.7207 37.7305C20.3172 38.0599 19.7505 37.8408 19.2548 37.8816C18.9767 37.8922 18.6986 37.877 18.4221 37.877Z" fill="#F3F3F3"/>
<path d="M87.1432 30.171C86.4888 30.171 85.8329 30.1453 85.1785 30.171C84.6435 30.1997 84.3549 30.0017 84.1781 29.4863C83.7247 28.1776 83.2048 26.8945 82.762 25.5842C82.5565 24.9797 82.2482 24.8392 81.6346 24.9707C79.9858 25.3243 78.3279 25.6326 76.6671 25.9243C74.982 26.219 73.85 27.0864 73.2909 28.7609C72.7408 30.4082 72.9886 30.1407 71.2975 30.1634C70.3409 30.1754 69.3842 30.1634 68.4261 30.1634C67.3516 30.1634 67.3319 30.1346 67.746 29.1055C69.6452 24.3913 71.5464 19.6777 73.4496 14.9645C74.2052 13.0981 74.9744 11.2393 75.6998 9.36075C75.919 8.791 76.2091 8.525 76.8544 8.54918C78.136 8.59603 79.4236 8.57794 80.7052 8.55678C81.1948 8.54771 81.491 8.6958 81.6814 9.17789C84.3594 15.9111 87.0479 22.6403 89.7471 29.3654C89.9949 29.982 89.8121 30.1921 89.1788 30.1679C88.5033 30.1513 87.8217 30.171 87.1432 30.171ZM78.7904 14.8225L78.5607 14.8436C77.7053 17.1166 76.8489 19.3895 75.9915 21.6625C75.7573 22.2912 76.2106 22.208 76.5552 22.1446C77.8141 21.9164 79.0654 21.6413 80.3334 21.4327C81.0014 21.3224 81.089 21.0171 80.8714 20.4413C80.4558 19.3653 80.0749 18.2757 79.6745 17.1937C79.3828 16.4018 79.0851 15.6129 78.7904 14.8225Z" fill="#F3F3F3"/>
<path d="M182.877 8.57013C183.587 8.65476 184.604 8.24217 185.295 8.74693C185.952 9.2245 186.039 10.2491 186.353 11.0395C188.771 17.0655 191.179 23.0944 193.578 29.1264C193.983 30.142 193.965 30.1692 192.874 30.1707C191.617 30.1707 190.356 30.1495 189.096 30.1813C188.55 30.1934 188.278 29.9803 188.104 29.477C187.651 28.1698 187.137 26.8837 186.687 25.5749C186.496 25.0173 186.22 24.8389 185.629 24.9704C183.905 25.3346 182.17 25.6429 180.439 25.9724C178.881 26.2746 177.822 27.0983 177.278 28.6488C176.643 30.4624 177.006 30.148 175.07 30.1752C174.113 30.1888 173.156 30.1843 172.198 30.1752C171.36 30.1662 171.292 30.08 171.612 29.3002C173.67 24.1891 175.732 19.079 177.796 13.9699C178.401 12.4586 179.05 10.9474 179.61 9.41343C179.851 8.75905 180.214 8.50665 180.896 8.56408C181.505 8.61244 182.112 8.57013 182.877 8.57013ZM182.749 14.8374L182.508 14.8162C181.629 17.1572 180.745 19.5011 179.877 21.8406C179.755 22.1685 179.992 22.235 180.256 22.1851C181.688 21.9161 183.118 21.6431 184.547 21.366C184.869 21.3026 185.034 21.1046 184.91 20.7615C184.192 18.7868 183.472 16.8136 182.749 14.8419V14.8374Z" fill="#F3F3F3"/>
<path d="M45.6628 19.435C45.6628 12.7552 50.9523 7.87227 57.6397 8.32868C60.233 8.50549 62.5649 9.25355 64.5703 10.9552C65.1204 11.4222 65.2519 11.785 64.6867 12.3487C64.0349 13.0138 63.4224 13.7162 62.852 14.4523C62.4425 14.9692 62.1221 15.0568 61.5856 14.5793C60.5916 13.6751 59.3655 13.0655 58.0447 12.8187C54.2846 12.1461 50.9885 14.7017 50.6591 18.5463C50.5518 19.7916 50.6591 21.0127 51.1503 22.1734C52.6162 25.6659 56.4019 27.076 59.8189 25.4076C60.5686 25.0455 61.2615 24.5761 61.8757 24.0141C62.2898 23.6318 62.5845 23.6908 62.9457 24.0822C63.5774 24.7668 64.2258 25.4423 64.9104 26.071C65.3638 26.4866 65.2927 26.7753 64.8922 27.1833C62.3412 29.7797 59.1917 30.7197 55.6614 30.4114C49.772 29.9021 45.6659 25.3411 45.6628 19.435Z" fill="#F3F3F3"/>
<path d="M0.00608858 19.2701C0.00608858 18.8681 0.00608858 18.4646 0.00608858 18.061C0.00608858 16.8671 0.00609335 16.852 1.28614 16.7447C3.34836 16.5705 5.35668 15.995 7.19822 15.0506C9.67704 13.7857 11.7901 11.9062 13.3355 9.59189C13.4685 9.39542 13.535 9.04638 13.8282 9.0887C14.0564 9.12043 14.0745 9.44078 14.1576 9.6448C14.6276 10.8145 15.1324 11.9722 15.82 13.0255C16.2492 13.6814 16.1344 14.1152 15.6236 14.6592C14.143 16.2759 12.4386 17.6724 10.5623 18.8061C9.83086 19.2384 9.83086 19.2671 10.5517 19.6978C12.5208 20.875 14.295 22.351 15.8109 24.0729C16.2024 24.5142 16.1933 24.8633 15.8971 25.3393C15.2294 26.4356 14.6576 27.5875 14.1878 28.7821C14.0972 29.0057 14.0836 29.3518 13.813 29.3866C13.5425 29.4213 13.4488 29.0843 13.3143 28.8863C10.8963 25.3817 7.63649 23.0981 3.49108 22.1037C2.61174 21.8833 1.71155 21.7567 0.805556 21.7259C0.160244 21.7108 -0.0271531 21.4328 0.00307231 20.8479C0.0287639 20.328 0.00759985 19.799 0.00608858 19.2701Z" fill="#F3F3F3"/>
<path d="M168.039 19.447C168.039 22.6428 168.039 25.8386 168.039 29.0344C168.039 30.0032 167.971 30.0696 167.018 30.0787C166.111 30.0862 165.204 30.0439 164.297 30.0908C163.542 30.1301 163.255 29.8535 163.276 29.0949C163.314 27.7121 163.285 26.3277 163.285 24.9434C163.285 19.9371 163.285 14.9297 163.285 9.92138C163.285 8.71237 163.3 8.70181 164.504 8.69879C165.284 8.69879 166.064 8.69879 166.844 8.69879C168.032 8.69879 168.036 8.69878 168.036 9.86095C168.04 13.0558 168.041 16.2511 168.039 19.447Z" fill="#F3F3F3"/>
<path d="M97.5402 16.5921L97.5855 16.5482L97.6429 16.577C97.6093 16.5858 97.5749 16.5909 97.5402 16.5921Z" fill="#F3F3F3"/>
</svg>
