<svg width="229" height="38" viewBox="0 0 229 38" fill="none" xmlns="http://www.w3.org/2000/svg">
<path d="M195.292 19.2459C195.292 16.508 195.311 13.7701 195.279 11.0302C195.271 10.366 195.447 9.97401 196.058 9.62558C201.1 6.75633 206.126 3.85903 211.136 0.933693C211.698 0.606052 212.101 0.614967 212.657 0.939638C217.673 3.8597 222.698 6.75797 227.734 9.63447C228.29 9.95222 228.515 10.2858 228.512 10.946C228.482 16.5202 228.482 22.0944 228.512 27.6686C228.512 28.2734 228.314 28.6119 227.795 28.9109C222.703 31.8263 217.622 34.7599 212.551 37.7116C212.05 38.0036 211.693 37.969 211.215 37.6918C206.146 34.746 201.068 31.8164 195.981 28.9029C195.455 28.606 195.276 28.2565 195.283 27.6537C195.311 24.8534 195.292 22.0492 195.292 19.2459ZM225.598 19.3449C225.598 17.0356 225.585 14.7273 225.608 12.416C225.608 11.9319 225.467 11.6389 225.036 11.3925C220.918 9.03267 216.806 6.65998 212.701 4.27444C212.165 3.96363 211.691 3.92009 211.136 4.24278C207.032 6.62832 202.921 9.00096 198.801 11.3608C198.344 11.6231 198.163 11.919 198.166 12.4496C198.187 17.0029 198.187 21.5562 198.166 26.1095C198.166 26.6886 198.381 26.9875 198.859 27.2627C202.981 29.6199 207.091 31.9955 211.191 34.3896C211.725 34.7014 212.11 34.6639 212.622 34.3659C216.694 31.9903 220.778 29.6364 224.875 27.3043C225.455 26.9757 225.619 26.6055 225.61 25.9759C225.576 23.7656 225.598 21.5553 225.598 19.3449Z" fill="white"/>
<path d="M72.2926 15.8596C72.2999 20.0486 72.3051 24.239 72.3084 28.4307C72.3084 29.471 72.2095 29.5512 71.1701 29.564C70.5762 29.572 69.9823 29.564 69.3884 29.5532C68.9924 29.5532 68.7796 29.3433 68.7687 28.9424C68.7618 28.6791 68.7559 28.4148 68.7559 28.1505C68.7559 22.2114 68.7559 16.2743 68.7559 10.3392C68.7559 8.97416 68.7559 8.97319 70.1228 8.96923C70.7168 8.96923 71.3107 8.99296 71.9046 8.96425C72.4767 8.93654 72.7954 9.16224 73.03 9.70171C74.0268 12.0001 75.0642 14.2817 76.0887 16.5693C77.1538 18.9449 78.2215 21.3206 79.2918 23.6962C79.3809 23.8942 79.4037 24.1565 79.6878 24.2307C80.0422 24.0842 80.057 23.714 80.1827 23.4289C82.1218 19.0231 84.0758 14.6193 85.9654 10.1947C86.3614 9.27706 86.8325 8.79894 87.8719 8.95434C88.4202 9.03551 88.9914 8.95437 89.5546 8.97614C90.2475 9.00386 90.3178 9.08801 90.3564 9.80664C90.3663 10.0046 90.3564 10.2026 90.3564 10.4006V28.3109C90.3564 28.4752 90.3564 28.6405 90.3564 28.8058C90.3247 29.5849 90.2574 29.667 89.5061 29.6908C88.8469 29.7115 88.1866 29.6908 87.5264 29.6838C87.0444 29.6769 86.8009 29.4304 86.8078 28.9415C86.8078 28.6782 86.8018 28.4139 86.8018 28.1496C86.8018 24.4541 86.8018 20.7587 86.8018 17.0632V15.9744C86.4059 16.0397 86.4178 16.3198 86.3416 16.5138C84.7835 20.5069 83.2295 24.502 81.6794 28.499C81.2785 29.5334 81.2745 29.5472 80.1896 29.5581C79.7937 29.5621 79.3978 29.5621 79.0018 29.5581C77.9555 29.5482 77.9308 29.5363 77.5487 28.5801C76.6783 26.4064 75.8115 24.2314 74.9484 22.055C74.1377 20.0001 73.3409 17.9402 72.5371 15.8823C72.4846 15.7289 72.5203 15.4616 72.251 15.5448C72.1382 15.5844 72.2253 15.7586 72.2926 15.8596Z" fill="white"/>
<path d="M46.2566 15.7151L46.2358 28.0883C46.2358 29.5641 46.2358 29.573 44.7738 29.5661C42.606 29.5582 42.8179 29.77 42.8159 27.5953C42.8099 21.9862 42.8099 16.3787 42.8159 10.7728C42.8159 10.5095 42.8159 10.2452 42.8159 9.98092C42.8396 9.05046 42.899 8.99107 43.8503 8.97226C44.5105 8.96138 45.1727 9.00492 45.83 8.96037C46.4872 8.91583 46.8525 9.19003 47.1108 9.78889C48.0413 11.9369 49.0084 14.069 49.9656 16.2061C51.0564 18.6444 52.1495 21.0814 53.245 23.5171C53.2802 23.6095 53.3202 23.7001 53.3647 23.7884C53.6112 24.211 53.8319 24.2258 54.0576 23.7735C54.4773 22.9153 54.8574 22.0363 55.2454 21.1603C56.8945 17.383 58.5496 13.6077 60.1769 9.82055C60.4303 9.22664 60.753 8.91684 61.43 8.95941C62.1853 9.00692 62.9465 8.98021 63.7067 8.97328C64.2016 8.96833 64.4323 9.20684 64.4204 9.69682C64.4144 9.92745 64.4204 10.1591 64.4204 10.3897V28.2021C64.4204 28.4001 64.4263 28.598 64.4204 28.796C64.3818 29.5463 64.2897 29.6592 63.5513 29.6869C62.892 29.7126 62.2318 29.6869 61.5716 29.6869C61.0767 29.6869 60.851 29.4414 60.8678 28.9514C60.8767 28.6871 60.8678 28.4228 60.8678 28.1595C60.8678 24.4641 60.8678 20.7686 60.8678 17.0732V15.8973C60.46 16.0952 60.4135 16.409 60.3145 16.6614C58.8264 20.4763 57.3449 24.2902 55.87 28.1031C55.7869 28.3189 55.6721 28.5258 55.6146 28.7465C55.4513 29.3454 55.0871 29.6067 54.4575 29.5661C53.8971 29.5339 53.3352 29.5339 52.7748 29.5661C52.1977 29.5958 51.878 29.3622 51.6661 28.8148C50.807 26.6015 49.9072 24.404 49.0302 22.1976C48.263 20.2664 47.5098 18.3303 46.7446 16.3991C46.6456 16.1566 46.511 15.9299 46.3932 15.6963C46.3398 15.631 46.2932 15.631 46.2566 15.7151Z" fill="white"/>
<path d="M29.6597 29.7393C28.1841 29.8034 26.7089 29.6023 25.3044 29.1454C23.0168 28.3891 21.3044 26.9677 20.3739 24.7415C18.8753 21.1583 18.711 17.5156 20.1898 13.874C21.0431 11.7755 22.6031 10.3293 24.7273 9.58991C27.5711 8.60006 30.4902 8.56045 33.3924 9.30185C36.7767 10.167 38.7099 12.4694 39.4196 15.8131C39.9522 18.3263 39.9334 20.8613 39.2771 23.3528C38.4397 26.5361 36.4065 28.5366 33.2143 29.3632C32.0545 29.6636 30.8566 29.7903 29.6597 29.7393ZM35.7255 19.2825C35.8116 18.0432 35.6384 16.7995 35.2167 15.631C34.5486 13.7888 33.2162 12.7376 31.3385 12.3348C30.239 12.1063 29.1057 12.0919 28.0007 12.2922C25.8122 12.6664 24.2759 13.8334 23.6553 15.9685C22.9624 18.363 22.9456 20.7891 23.8532 23.1529C24.2691 24.2441 25.0775 25.1407 26.12 25.6671C27.7552 26.5282 29.4855 26.5431 31.2306 26.2451C33.3469 25.8838 34.6783 24.5871 35.3246 22.5471C35.6534 21.4918 35.7892 20.386 35.7255 19.2825Z" fill="white"/>
<path d="M149.538 16.1794C149.538 18.1255 149.538 20.0722 149.538 22.0196C149.538 23.0193 149.34 23.9884 149.043 24.9347C148.407 26.9629 147.056 28.3625 145.071 29.0504C142.143 30.065 139.156 30.0918 136.238 29.0504C133.533 28.0814 132.247 25.9641 131.923 23.1787C131.626 20.6456 131.799 18.1047 131.764 15.5677C131.737 13.7206 131.752 11.8726 131.764 10.0245C131.764 9.02873 131.824 8.9842 132.846 8.97232C133.44 8.96572 134.034 8.96572 134.627 8.97232C135.617 8.98717 135.667 9.03369 135.673 10.0612C135.682 11.4796 135.673 12.8981 135.673 14.3175C135.673 16.7592 135.673 19.2008 135.673 21.6424C135.659 22.1043 135.695 22.5662 135.781 23.0203C136.16 24.7327 137.162 25.8354 138.899 26.2086C140.308 26.5115 141.709 26.5244 143.087 26.0106C144.101 25.6355 144.832 24.9792 145.237 23.9626C145.595 23.0379 145.772 22.0529 145.758 21.0614C145.758 17.5969 145.758 14.1324 145.758 10.6679C145.758 10.4373 145.758 10.2057 145.758 9.97503C145.782 9.04556 145.841 8.98519 146.794 8.96836C147.42 8.95747 148.048 8.95252 148.674 8.96836C149.431 8.99113 149.521 9.07228 149.531 9.84139C149.549 11.1935 149.537 12.5467 149.538 13.8998V16.1764V16.1794Z" fill="white"/>
<path d="M120.154 13.2553C119.541 14.3907 119.151 15.5459 118.692 16.6694C117.068 20.6367 115.452 24.6073 113.842 28.5812C113.452 29.5384 113.431 29.5493 112.387 29.5572C111.694 29.5572 111.001 29.573 110.308 29.5503C109.633 29.5265 109.556 29.4117 109.813 28.7584C110.174 27.8378 110.568 26.9301 110.955 26.0205C113.158 20.8297 115.363 15.6405 117.57 10.4531C118.317 8.70993 118.011 8.99008 119.768 8.96335C120.362 8.95444 120.956 8.98908 121.55 8.95543C122.143 8.92177 122.461 9.17121 122.681 9.69583C123.318 11.2162 123.983 12.7248 124.64 14.2373C126.609 18.7741 128.578 23.3109 130.546 27.8477C131.299 29.5908 131.428 29.577 129.419 29.5622C128.891 29.5622 128.363 29.5394 127.835 29.5622C127.291 29.5889 127.003 29.3345 126.789 28.8514C126.19 27.4944 125.531 26.163 124.939 24.803C124.68 24.209 124.315 23.9546 123.652 23.9734C122.266 24.013 120.88 23.9863 119.495 23.9833C119.23 23.989 118.966 23.9798 118.703 23.9556C118.372 23.918 118.227 23.6973 118.339 23.3964C118.639 22.5939 118.958 21.7987 119.297 21.0108C119.452 20.6495 119.812 20.6446 120.148 20.6426C121.006 20.6426 121.864 20.6565 122.722 20.6268C123.341 20.606 123.444 20.4674 123.198 19.8883C122.28 17.7354 121.332 15.5953 120.391 13.4543C120.379 13.4058 120.305 13.3771 120.154 13.2553Z" fill="white"/>
<path d="M102.857 24.3922C103.178 24.1655 103.226 23.821 103.345 23.528C105.165 19.0341 106.978 14.5379 108.785 10.0393C109.215 8.97027 109.215 8.9683 110.368 8.96434C111.225 8.96434 112.084 8.94953 112.942 8.9713C113.624 8.98813 113.697 9.09103 113.418 9.74433C112.603 11.6557 111.765 13.5563 110.932 15.4598C109.095 19.6597 107.27 23.8656 105.41 28.0536C104.582 29.9155 104.888 29.677 102.874 29.6958C102.412 29.7007 101.949 29.6691 101.488 29.7017C100.823 29.7502 100.469 29.4444 100.224 28.8435C99.3799 26.7648 98.498 24.704 97.6309 22.6362C95.8967 18.5006 94.1624 14.3646 92.4282 10.2284C91.9016 8.97127 91.9076 8.9683 93.2983 8.96632C94.0239 8.96632 94.7524 9.00593 95.476 8.95545C96.1995 8.90497 96.6014 9.18709 96.8736 9.88295C98.0387 12.8624 99.2552 15.822 100.456 18.7866C101.136 20.4674 101.82 22.1472 102.508 23.826C102.589 24.0289 102.634 24.2684 102.857 24.3922Z" fill="white"/>
<path d="M11.203 29.7394C9.1243 29.8028 7.18023 29.5316 5.32822 28.7347C3.22083 27.827 1.72318 26.3037 0.917439 24.1656C-0.224849 21.1337 -0.270383 18.0236 0.613555 14.9342C1.37673 12.2755 3.20202 10.5205 5.79939 9.6336C7.93146 8.91426 10.192 8.65611 12.4314 8.87632C13.6479 8.98718 14.8595 9.10599 16.0374 9.45046C17.0758 9.75435 17.1371 9.82462 17.1451 10.8758C17.1451 11.4361 17.1451 11.9973 17.1263 12.5586C17.1094 12.9862 16.8649 13.1387 16.4581 13.0278C16.2354 12.9664 16.0166 12.8902 15.7959 12.8249C13.6796 12.2032 11.5326 11.9835 9.34503 12.3418C6.65363 12.7823 4.63235 14.3364 4.16811 17.2851C3.90184 18.9768 3.98102 20.6447 4.5007 22.272C5.19359 24.4576 6.77736 25.7108 8.96889 26.1641C11.2713 26.6402 13.5618 26.4749 15.8117 25.7939C17.054 25.4177 17.052 25.4098 17.1975 26.6759C17.443 28.8129 17.4282 28.8288 15.3495 29.3297C13.9929 29.6575 12.5975 29.7954 11.203 29.7394Z" fill="white"/>
<path d="M174.516 21.0327C174.516 23.5073 174.52 25.976 174.516 28.4477C174.516 29.5068 174.46 29.5524 173.39 29.5623C172.731 29.5692 172.073 29.5563 171.41 29.5553C170.964 29.5553 170.743 29.3346 170.742 28.8891C170.742 28.5922 170.734 28.2952 170.734 27.9983C170.734 23.2859 170.734 18.5732 170.734 13.8602C170.734 13.5959 170.745 13.3316 170.727 13.0683C170.683 12.4338 170.603 12.3309 169.947 12.32C168.562 12.2972 167.176 12.32 165.79 12.3052C164.888 12.2962 164.822 12.228 164.8 11.3618C164.787 10.7679 164.8 10.174 164.808 9.58011C164.808 9.17625 165.025 8.97827 165.424 8.97233C165.654 8.97233 165.885 8.96242 166.117 8.96242H179.069C179.267 8.96242 179.465 8.95451 179.663 8.96837C180.31 9.0139 180.405 9.09212 180.432 9.73057C180.457 10.3245 180.456 10.9184 180.432 11.5123C180.404 12.2052 180.323 12.2903 179.593 12.3042C178.341 12.325 177.089 12.3101 175.837 12.3131C174.516 12.3131 174.512 12.318 174.51 13.6177C174.511 16.089 174.513 18.5607 174.516 21.0327Z" fill="white"/>
<path d="M153.488 19.144C153.488 16.2114 153.488 13.2785 153.488 10.3452C153.488 10.0819 153.493 9.81764 153.503 9.55335C153.516 9.20294 153.701 8.99109 154.053 8.98713C154.942 8.97723 155.833 8.97723 156.726 8.98713C157.087 8.98713 157.251 9.22074 157.259 9.5662C157.267 9.86316 157.272 10.1601 157.273 10.4571V24.6931C157.273 24.9237 157.268 25.1544 157.273 25.386C157.299 26.2571 157.362 26.3382 158.251 26.3422C160.591 26.3541 162.931 26.3422 165.27 26.3481C167.007 26.3481 166.953 26.2036 166.953 27.9992C166.953 29.682 166.968 29.5632 165.384 29.5641C161.925 29.5641 158.465 29.5641 155.004 29.5641C154.707 29.5641 154.41 29.5582 154.113 29.5513C153.717 29.5414 153.512 29.3286 153.502 28.9326C153.496 28.6693 153.49 28.405 153.489 28.1407L153.488 19.144Z" fill="white"/>
<path d="M72.2927 15.8597C72.2253 15.7607 72.1333 15.5845 72.2511 15.5489C72.5203 15.4657 72.4847 15.733 72.5371 15.8864L72.2927 15.8597Z" fill="white"/>
<path d="M46.2566 15.7152C46.2932 15.632 46.3397 15.634 46.3942 15.6984L46.2566 15.7152Z" fill="white"/>
<path d="M200.868 14.1859C201.159 14.1185 201.357 14.3264 201.577 14.4521C204.461 16.1121 207.337 17.786 210.228 19.4351C210.706 19.7073 210.945 20.0111 210.94 20.5971C210.914 23.8933 210.928 27.1895 210.924 30.4857C210.924 30.6708 210.984 30.8817 210.787 31.05C210.474 31.0975 210.252 30.8688 210.007 30.7272C207.152 29.0831 204.305 27.4251 201.444 25.7929C200.967 25.5207 200.709 25.2118 200.713 24.6327C200.732 21.3365 200.722 18.0403 200.724 14.7441C200.72 14.5511 200.705 14.3442 200.868 14.1859Z" fill="white"/>
<path d="M202.246 12.4813C202.427 12.1695 202.723 12.0764 202.974 11.9319C205.653 10.3788 208.346 8.84949 211.012 7.27365C211.623 6.91334 212.12 6.86881 212.745 7.23803C215.411 8.81288 218.101 10.3481 220.782 11.8972C220.899 11.9575 221.012 12.0235 221.122 12.0952C221.509 12.3734 221.518 12.5664 221.146 12.8435C221.037 12.9165 220.924 12.9826 220.807 13.0415C218.124 14.5896 215.433 16.1209 212.767 17.6938C212.15 18.0591 211.667 18.063 211.044 17.6938C208.324 16.0813 205.574 14.5174 202.836 12.9356C202.639 12.8337 202.42 12.7476 202.246 12.4813Z" fill="white"/>
<path d="M221.642 26.2017L213.116 31.1133C212.819 30.9154 212.863 30.7055 212.863 30.5194C212.859 27.6568 212.859 24.7941 212.863 21.9314C212.863 21.1465 212.986 21.0535 213.619 21.4148C216.216 22.8995 218.802 24.4061 221.389 25.9067C221.443 25.9413 221.476 26.0077 221.642 26.2017Z" fill="white"/>
</svg>
