<svg width="222" height="34" viewBox="0 0 222 34" fill="none" xmlns="http://www.w3.org/2000/svg">
<path d="M138.761 21.5566C138.761 23.6338 138.77 25.711 138.761 27.7866C138.74 31.4836 137.099 33.3035 133.414 33.6624C130.195 33.98 127.033 33.8212 124.063 32.3427C123.774 32.1982 123.503 32.0902 123.171 32.2935C119.812 34.3468 116.196 33.8926 112.585 33.3273C111.526 33.1366 110.478 32.8879 109.447 32.5825C108.286 32.2649 107.805 31.4947 107.819 30.2719C107.86 26.5177 107.798 22.7619 107.857 19.0093C107.873 18.0358 107.565 17.8183 106.65 17.8405C104.095 17.8993 101.536 17.8834 98.9812 17.8405C98.2475 17.831 97.9299 17.966 97.9474 18.8045C98.003 21.4788 97.9474 24.1562 97.9744 26.8321C97.9855 28.3344 98.5413 28.9172 100.067 29.003C100.739 29.0411 101.417 28.9411 102.094 28.9046C102.373 28.8887 102.756 28.7457 102.913 28.8823C103.903 29.7049 103.591 30.977 103.898 32.041C104.068 32.6317 103.58 32.8525 103.069 32.9938C100.687 33.6449 98.2603 33.8164 95.84 33.3321C92.9514 32.7524 91.5189 30.9007 91.4649 27.7516C91.4141 24.837 91.4141 21.9213 91.4649 19.0046C91.484 18.0676 91.2283 17.7674 90.2707 17.7976C88.1173 17.8675 85.9559 17.8707 83.8009 17.7976C82.7512 17.7627 82.3717 17.9993 82.3876 19.1538C82.4638 23.4257 82.3876 27.7008 82.4384 31.9743C82.4495 32.9557 82.1875 33.3225 81.1679 33.2606C79.8119 33.178 78.4522 33.178 77.0962 33.2606C76.0607 33.3257 75.8257 32.9223 75.8384 31.9584C75.8829 27.6849 75.8241 23.4114 75.8813 19.138C75.8956 18.1121 75.6732 17.7611 74.5791 17.7897C72.197 17.8532 72.432 18.1708 72.4225 15.6379C72.413 13.2955 72.4225 13.2558 74.7458 13.2844C75.659 13.2986 75.9496 13.0176 75.8733 12.1298C75.8268 11.3726 75.8374 10.6129 75.9051 9.85731C76.1052 6.92892 77.752 5.11536 80.6312 4.70246C82.8275 4.38485 85.0047 4.60083 87.1756 5.02008C88.0617 5.19159 88.3031 5.6426 88.1284 6.44933C88.1154 6.52823 88.1064 6.60773 88.1014 6.68754C87.7838 9.28402 87.7838 9.28404 85.1826 9.08553C82.9323 8.91243 81.53 10.907 82.4416 12.9477C82.6004 13.2971 82.8719 13.2574 83.1371 13.2574C85.6542 13.2653 88.1713 13.2574 90.6868 13.2701C91.2648 13.2701 91.4538 13.0461 91.4443 12.4903C91.4205 11.1722 91.457 9.85416 91.43 8.53607C91.4141 7.76109 91.7127 7.37361 92.5083 7.26562C93.9296 7.06711 95.3477 6.82094 96.7532 6.52714C97.6933 6.33023 97.9823 6.68597 97.9617 7.57846C97.9284 9.00772 98.0157 10.4576 97.9315 11.8916C97.8696 12.9445 98.1332 13.3209 99.2798 13.2971C103.833 13.224 108.387 13.3098 112.937 13.2399C114.187 13.2208 114.49 13.648 114.476 14.8279C114.417 19.3396 114.476 23.8545 114.431 28.3678C114.424 29.2491 114.708 29.5985 115.559 29.616C116.115 29.6271 116.671 29.7478 117.225 29.7891C119.067 29.9225 119.961 29.1793 119.996 27.3498C120.052 24.4342 120.033 21.5185 120.042 18.6028C120.042 17.2053 120.091 15.8046 120.025 14.4103C119.98 13.4876 120.342 13.2256 121.211 13.2574C122.607 13.3066 124.009 13.3209 125.403 13.2574C126.38 13.2113 126.621 13.6163 126.615 14.5183C126.583 19.0713 126.634 23.6258 126.575 28.1756C126.563 29.2206 126.912 29.635 127.908 29.6446C128.305 29.6446 128.702 29.7716 129.096 29.7938C131.125 29.905 132.18 28.9268 132.184 26.9004C132.196 22.7873 132.215 18.6727 132.17 14.5596C132.159 13.575 132.451 13.2034 133.458 13.2558C134.852 13.3272 136.255 13.3082 137.651 13.2558C138.481 13.2272 138.775 13.5258 138.762 14.3674C138.734 16.7622 138.761 19.1602 138.761 21.5566Z" fill="white"/>
<path d="M191.08 25.9013C189.323 25.9013 187.565 25.9252 185.809 25.8902C185.08 25.8759 184.908 26.1522 185.045 26.8224C185.321 28.1723 186.228 29.0663 187.722 29.3728C190.004 29.8381 192.248 29.5952 194.472 28.9996C195.996 28.5915 196.096 28.6503 196.447 30.1113C196.987 32.36 196.987 32.3552 194.711 32.9984C191.5 33.9068 188.243 33.9862 184.986 33.3938C181.045 32.676 178.921 30.3161 178.362 25.9871C178.039 23.6463 178.123 21.2671 178.612 18.9551C179.391 15.4026 181.311 13.6034 184.931 13.0428C187.56 12.6347 190.171 12.6648 192.747 13.4446C195.143 14.1671 196.589 15.7409 197.194 18.1516C197.748 20.3463 197.732 22.5775 197.721 24.8215C197.721 25.6759 197.202 25.9029 196.469 25.9013H191.07H191.08ZM188.172 22.1789C189.009 22.1789 189.846 22.1789 190.683 22.1789C190.984 22.1789 191.397 22.2551 191.397 21.7787C191.397 20.3939 191.607 18.9059 190.522 17.8165C189.437 16.7271 188.016 16.878 186.689 17.2242C185.336 17.5751 184.516 19.592 184.991 21.6358C185.262 22.8046 186.393 21.9455 187.101 22.1662C187.429 22.2631 187.813 22.1805 188.172 22.1789Z" fill="white"/>
<path d="M50.7426 23.3591C50.7265 22.2115 50.796 21.0645 50.9506 19.9273C51.4572 15.919 53.5852 13.6814 57.5729 13.0462C60.0391 12.6524 62.4959 12.6683 64.9335 13.2955C67.792 14.0324 69.5627 15.8364 70.1821 18.7362C70.7955 21.5924 70.8279 24.5428 70.2774 27.4118C69.5977 31.0056 67.6269 32.8351 63.96 33.4766C61.716 33.8762 59.4181 33.8665 57.1774 33.448C53.5074 32.7588 51.4604 30.5594 50.9697 26.8449C50.7995 25.6911 50.7236 24.5252 50.7426 23.3591ZM57.4538 23.186C57.4411 24.5438 57.4156 25.9032 57.684 27.2435C58.0016 28.8506 58.8783 29.4954 60.7013 29.489C62.5244 29.4826 63.4233 28.8411 63.6742 27.2038C64.0768 24.5947 64.0768 21.9393 63.6742 19.3302C63.428 17.7421 62.5514 17.1228 60.7887 17.1069C58.8703 17.091 58.062 17.6468 57.711 19.2508C57.4204 20.5482 57.4426 21.8679 57.4538 23.186Z" fill="white"/>
<path d="M160.534 24.099C160.534 25.9348 160.552 27.7722 160.534 29.608C160.517 31.4438 159.812 32.4427 158.041 32.9429C154.255 34.001 150.269 34.1247 146.424 33.3034C142.269 32.4347 140.347 27.6404 142.491 23.9465C143.399 22.3823 144.894 21.7788 146.539 21.4755C148.578 21.1007 150.638 20.8403 152.677 20.4655C153.172 20.375 154.007 20.6513 154.019 19.6826C154.03 18.7139 154.117 17.68 152.886 17.337C151.395 16.9209 149.869 17.0496 148.371 17.2592C147.111 17.4371 145.869 17.7499 144.628 18.0532C144.047 18.193 143.703 18.0818 143.602 17.4593C143.564 17.2227 143.517 16.9829 143.463 16.7542C142.888 14.2467 142.882 14.2133 145.418 13.6336C148.753 12.8603 152.103 12.4886 155.507 13.0794C159 13.6845 160.539 15.5282 160.539 19.0759C160.538 20.7476 160.537 22.422 160.534 24.099ZM154.023 26.8066C154.023 26.0507 154.023 25.2964 154.023 24.5405C154.023 24.1149 153.936 23.8655 153.407 23.9672C152.161 24.2101 150.9 24.3769 149.655 24.6326C148.861 24.7914 148.281 25.3202 148.135 26.1349C147.936 27.2465 147.849 28.4265 148.907 29.1887C150.371 30.2416 152.073 30.0383 153.606 29.5302C154.559 29.2125 153.833 28.0422 154.019 27.2815C154.039 27.1239 154.04 26.9645 154.022 26.8066H154.023Z" fill="white"/>
<path d="M40.5848 12.7969C42.4584 12.8126 44.3237 13.0466 46.143 13.4941C46.999 13.7022 47.2086 14.1039 47.0339 14.9488C46.5178 17.4579 46.5416 17.4897 44.0071 17.099C42.9459 16.9132 41.8657 16.8599 40.7913 16.9402C39.794 17.0371 38.8602 17.3579 38.7744 18.5823C38.6934 19.7463 39.4097 20.3164 40.4467 20.5705C41.6822 20.8723 42.9383 21.1025 44.158 21.4582C46.2685 22.0712 47.3579 23.5767 47.639 25.7111C48.2583 30.4133 45.9747 33.2242 41.1279 33.6609C38.3631 33.9102 35.6396 33.5625 32.9478 32.9002C32.0871 32.6874 31.8362 32.2936 31.995 31.3725C32.4412 28.6728 32.3936 28.6728 35.0123 29.2C36.3034 29.4605 37.6024 29.6892 38.9269 29.5876C40.3307 29.4796 41.0787 28.8141 41.1311 27.6946C41.1835 26.575 40.6881 26.008 39.2382 25.6602C38.1916 25.4109 37.1181 25.2537 36.0922 24.9409C33.4703 24.1469 32.257 22.4111 32.1665 19.4732C32.0728 16.4479 33.2686 14.4708 35.7778 13.4973C37.3166 12.8938 38.9444 12.7985 40.5848 12.7969Z" fill="white"/>
<path d="M0.0308661 15.1248C-0.050125 12.8206 0.030869 10.0637 1.19015 7.48306C3.42138 2.51561 7.38359 0.177978 12.7385 0.0191719C13.9359 -0.0157655 15.1365 0.0414265 16.3339 0.00172493C17.012 -0.022096 17.2645 0.197036 17.1819 0.894196C16.9257 3.03279 16.6939 5.17508 16.4864 7.32108C16.4403 7.78162 16.2513 7.93885 15.813 7.92932C15.0539 7.91344 14.2948 7.92932 13.5357 7.92932C9.92926 7.9579 8.09187 9.76669 8.03629 13.3922C8.00294 15.4694 7.99658 17.5482 8.04422 19.6238C8.06328 20.4305 7.86478 20.7561 6.98975 20.7354C5.03485 20.6735 3.07518 20.6814 1.11393 20.7354C0.29925 20.7577 -0.0310671 20.5417 0.00228217 19.6778C0.0769211 18.3089 0.0308661 16.9479 0.0308661 15.1248Z" fill="white"/>
<path d="M21.4901 18.1344C21.606 20.5959 21.4313 23.4862 20.1418 26.1939C18.0773 30.5197 14.5963 32.8844 9.89247 33.4179C8.27582 33.6006 6.62265 33.4529 4.98854 33.5037C4.30884 33.5259 4.1945 33.2416 4.26279 32.6461C4.50894 30.5816 4.75033 28.5299 4.93137 26.4654C4.98695 25.8397 5.22357 25.6253 5.81591 25.6571C6.33203 25.6857 6.85292 25.6571 7.37063 25.6571C11.5552 25.6317 13.4878 23.7038 13.5339 19.4891C13.5545 17.7342 13.5672 15.9779 13.5244 14.2231C13.5069 13.5164 13.6832 13.2384 14.4502 13.2575C16.5242 13.3083 18.5998 13.2924 20.6738 13.2575C21.2821 13.2575 21.5266 13.4163 21.5028 14.0627C21.4552 15.2601 21.4901 16.459 21.4901 18.1344Z" fill="white"/>
<path d="M165.333 24.0102C165.333 21.4566 165.381 18.9014 165.313 16.3494C165.278 15.1059 165.778 14.3865 166.918 14.0324C169.882 13.1145 172.934 12.8715 176.015 12.8398C176.65 12.8398 176.96 13.1733 177.017 13.7815C177.025 13.8609 177.031 13.9403 177.037 14.0197C177.328 17.4595 177.328 17.4595 173.888 17.631C173.809 17.631 173.729 17.6421 173.65 17.6468C171.848 17.7643 171.848 17.7643 171.848 19.5525C171.848 23.7021 171.816 27.8517 171.87 32.0013C171.884 33.0161 171.552 33.3147 170.579 33.2622C169.186 33.1876 167.784 33.1987 166.389 33.2622C165.526 33.2988 165.305 32.9653 165.318 32.1506C165.354 29.4366 165.333 26.7226 165.333 24.0102Z" fill="white"/>
<path d="M221.321 19.2652C221.321 21.8156 221.285 21.8553 218.758 21.9728C214.551 22.1697 213.106 20.5975 213.676 16.4368C213.954 14.3723 214.82 13.5148 216.887 13.194C218.177 12.9939 219.428 13.2067 220.683 13.4767C221.296 13.6085 221.301 13.9531 221.224 14.4454C221.137 15.0155 220.769 14.8646 220.416 14.8154C219.463 14.6788 218.52 14.5677 217.558 14.6915C216.651 14.8075 216.128 15.2997 215.903 16.1732C215.739 16.8332 215.686 17.5157 215.744 18.1932C215.877 20.0798 216.656 20.7341 218.544 20.6134C218.984 20.5848 219.414 20.5436 219.29 19.9782C219.181 19.4843 219.767 18.6903 218.768 18.549C218.225 18.468 217.753 18.4314 217.824 17.658C217.908 16.7338 218.591 17.2531 218.995 17.107C219.034 17.1006 219.074 17.1006 219.114 17.107C221.321 17.0895 221.321 17.0895 221.321 19.2652Z" fill="white"/>
<path d="M211.029 21.8836C210.063 22.1584 209.817 21.4517 209.774 20.772C209.658 18.9409 208.332 19.4729 207.265 19.3316C206.106 19.1728 205.853 19.8302 205.652 20.7243C205.398 21.836 204.67 22.2028 203.576 21.909C203.166 21.7994 203.192 21.5914 203.289 21.2976C204.127 18.8091 204.977 16.3238 205.798 13.8337C205.941 13.397 206.209 13.3414 206.6 13.3112C209.399 13.0937 209.398 13.0873 210.252 15.7982C210.783 17.4656 211.272 19.149 211.872 20.791C212.217 21.7041 212.056 22.0631 211.029 21.8836ZM207.638 18.0008C208.925 18.0008 208.977 17.9865 208.86 17.464C208.675 16.6557 208.42 15.8648 208.18 15.0708C208.108 14.8358 207.965 14.6373 207.678 14.6548C207.391 14.6722 207.308 14.885 207.243 15.1312C207.122 15.6711 206.963 16.2018 206.766 16.7192C206.306 17.8166 206.674 18.1771 207.638 18.0008Z" fill="white"/>
</svg>
