<svg width="208" height="38" viewBox="0 0 208 38" fill="none" xmlns="http://www.w3.org/2000/svg">
<path d="M108.252 29.3367H101.135V28.0698C101.135 24.8144 101.147 21.5542 101.135 18.3012C101.127 17.6612 101.061 17.0232 100.94 16.3947C100.698 15.0651 100.008 14.0636 98.5748 13.8609C97.1027 13.6533 95.6789 14.1022 95.0998 15.4464C94.4349 16.9764 94.0358 18.6086 93.9197 20.2728C93.7387 23.2338 93.869 26.2141 93.869 29.2933H86.7211C86.7211 28.4873 86.7211 27.6933 86.7211 26.8994C86.7018 23.685 86.738 20.4682 86.6391 17.2466C86.5739 15.1037 85.517 13.8681 83.8374 13.7981C82.4112 13.7426 81.1515 14.3073 80.5675 15.6298C80.024 16.7822 79.6968 18.0247 79.6022 19.2954C79.4719 22.5822 79.5588 25.8811 79.5588 29.2812H72.4833V8.40225H78.8155V11.8531L79.0568 12.0534C80.7219 9.28787 83.1882 7.97993 86.2819 7.85203C89.436 7.72413 91.9119 8.87763 93.3912 11.8796C95.942 8.11506 99.4628 7.36454 103.527 8.12953C105.725 8.5446 107.055 9.94667 107.714 11.9906C108.019 12.8634 108.194 13.7767 108.232 14.7007C108.278 19.5415 108.252 24.3656 108.252 29.3367Z" fill="#EFEFEF"/>
<path d="M120.117 37.9156H112.996V8.33221C115.001 8.33221 116.992 8.30806 118.978 8.3708C119.179 8.3708 119.497 8.90653 119.524 9.21301C119.599 10.0793 119.55 10.9578 119.673 11.9062C120.94 9.9177 122.7 8.76902 124.912 8.16572C128.735 7.14011 132.43 8.46975 134.601 11.7541C137.558 16.2234 136.998 23.3375 133.704 27.0755C130.644 30.5529 123.327 31.1779 120.117 26.7063V37.9156ZM129.355 18.8851C129.015 17.7292 128.851 16.5444 128.334 15.5429C126.831 12.6084 122.743 12.536 121.042 15.3667C119.71 17.5868 119.736 19.889 120.936 22.1236C121.701 23.5522 122.946 24.4065 124.645 24.3896C126.266 24.3728 127.557 23.6536 128.264 22.2178C128.771 21.2091 128.988 20.0507 129.355 18.8851Z" fill="#EFEFEF"/>
<path d="M24.5427 2.14242L23.9635 7.82304C22.3346 7.3042 20.8263 6.6744 19.2481 6.35585C16.234 5.74773 13.3116 6.0228 10.826 8.07402C7.9302 10.4631 6.86598 14.8527 8.19083 18.6366C8.78825 20.3386 9.9088 21.808 11.3921 22.8345C12.8754 23.8609 14.6454 24.3918 16.4488 24.3511C18.4662 24.3245 20.4812 23.825 22.4939 23.5065C23.0775 23.3822 23.6542 23.2275 24.2217 23.0431C24.34 24.8216 24.4823 26.4891 24.5306 28.1591C24.5306 28.4004 24.1517 28.8444 23.8766 28.9144C18.541 30.29 13.2296 30.4251 8.07017 28.1905C3.09898 26.0475 0.521684 22.114 0.0752427 16.8026C-0.260192 12.8039 0.485487 9.04413 3.13035 5.84423C5.51218 2.96046 8.70243 1.60669 12.2836 0.996151C16.4005 0.303563 20.4209 0.839293 24.5427 2.14242Z" fill="#EFEFEF"/>
<path d="M57.0242 29.9499C52.6443 29.7327 49.2079 28.8447 46.6258 25.9199C42.3713 21.0935 43.0229 10.4054 52.777 8.26244C56.4427 7.45644 60.0697 7.65432 63.412 9.53179C67.483 11.8195 68.9623 15.5648 68.6245 19.9979C68.2625 24.6433 65.5838 27.6718 61.2135 29.1149C59.6788 29.6241 58.0185 29.7617 57.0242 29.9499ZM51.4039 18.6079C51.6621 19.8145 51.7828 20.8955 52.1279 21.9018C52.818 23.8541 54.4518 24.9111 56.4716 24.8846C57.4022 24.8783 58.3081 24.5841 59.0647 24.0422C59.8213 23.5003 60.3916 22.7375 60.6971 21.8584C61.4762 19.8068 61.4191 17.5313 60.5379 15.5214C59.8139 13.8104 58.3829 12.8934 56.5826 12.833C54.7051 12.7703 53.0738 13.4846 52.3113 15.3597C51.9058 16.4191 51.7152 17.575 51.4136 18.6175L51.4039 18.6079Z" fill="#EFEFEF"/>
<path d="M170.589 29.9666C165.717 29.7253 162.124 28.8228 159.53 25.6229C155.647 20.8327 156.303 10.7214 165.362 8.42164C169.677 7.32605 173.833 7.62286 177.576 10.2243C180.891 12.5265 182.04 15.9291 181.765 19.7974C181.466 23.9819 179.448 27.1408 175.452 28.6901C173.613 29.402 171.615 29.706 170.589 29.9666ZM164.597 18.545C164.839 19.7106 164.933 20.7579 165.247 21.7377C165.891 23.7623 167.534 24.9014 169.59 24.8941C170.543 24.9034 171.475 24.6107 172.251 24.0579C173.028 23.5052 173.609 22.7209 173.912 21.8173C174.603 19.8679 174.583 17.737 173.854 15.8012C173.159 13.943 171.704 12.9053 169.728 12.8305C167.797 12.7533 166.176 13.7065 165.43 15.5261C165.027 16.5083 164.853 17.587 164.597 18.545Z" fill="#EFEFEF"/>
<path d="M192.735 29.3271H185.614C185.588 28.912 185.537 28.4921 185.534 28.0698C185.534 21.9186 185.561 15.7625 185.505 9.61851C185.505 8.51085 185.867 8.25022 186.888 8.29366C188.563 8.36847 190.245 8.31534 192.043 8.31534V11.9014C193.204 10.3256 194.565 9.15277 196.331 8.47948C202.313 6.19901 207.27 9.30721 207.895 15.7191C207.926 16.0376 207.924 16.361 207.924 16.6844C207.924 20.8592 207.924 25.0364 207.924 29.3029H200.781C200.781 28.8203 200.781 28.3594 200.781 27.8937C200.718 24.3583 200.757 20.8205 200.54 17.2948C200.412 15.0964 199.263 13.9598 197.564 13.7716C196.634 13.6711 195.698 13.8985 194.918 14.4144C194.138 14.9303 193.562 15.7024 193.29 16.5975C192.955 17.6254 192.773 18.6971 192.75 19.778C192.692 22.9176 192.735 26.0524 192.735 29.3271Z" fill="#EFEFEF"/>
<path d="M138.371 13.2818C138.371 11.7132 138.327 10.3522 138.412 8.9984C138.429 8.75708 138.957 8.37098 139.271 8.34685C140.342 8.2648 141.421 8.31544 142.649 8.31544C142.649 7.00508 142.698 5.81059 142.63 4.6233C142.587 3.83659 142.871 3.49874 143.617 3.28638C145.608 2.71445 147.575 2.05561 149.715 1.37991V8.26719H154.783V13.2818C153.53 13.2818 152.261 13.3252 150.999 13.2673C150.094 13.2263 149.708 13.4556 149.742 14.4739C149.821 16.8003 149.742 19.1338 149.79 21.4722C149.838 24.5973 151.011 25.5505 154.134 25.0679C154.327 25.0365 154.522 25.0196 154.928 24.9689V29.5202C152.09 30.0029 149.097 30.3238 146.185 29.262C143.612 28.3233 142.743 26.1249 142.664 23.6079C142.57 20.5987 142.591 17.5749 142.645 14.5681C142.664 13.5401 142.299 13.2191 141.325 13.2867C140.4 13.3325 139.478 13.2818 138.371 13.2818Z" fill="#EFEFEF"/>
<path d="M34.9798 29.3369C34.531 29.3659 34.2559 29.3997 33.9832 29.3997C31.9802 29.3997 29.9748 29.3997 27.885 29.3997V8.33484C29.8614 8.33484 31.8547 8.3131 33.8432 8.37585C34.0266 8.37585 34.3138 8.94057 34.3403 9.25911C34.4103 10.111 34.3644 10.9725 34.4996 11.8991C36.4108 8.38552 39.2657 7.2513 43.1606 8.14177C43.0495 10.053 42.9385 11.9522 42.8227 13.9479C42.287 13.9117 41.8574 13.9045 41.4255 13.849C38.047 13.4171 35.5059 15.2245 35.1849 18.6271C34.9147 21.494 35.0305 24.3971 34.9798 27.2857C34.9702 27.9276 34.9798 28.5671 34.9798 29.3369Z" fill="#EFEFEF"/>
</svg>
