<svg width="230" height="35" viewBox="0 0 230 35" fill="none" xmlns="http://www.w3.org/2000/svg">
<path d="M19.8366 0.391527C19.8104 0.90059 20.2409 0.726514 20.4767 0.790147C26.8756 2.47455 31.1296 6.44786 32.9245 12.8074C35.5952 22.2794 29.5556 31.9291 19.889 33.8344C19.6514 33.8812 19.3837 33.8344 19.1928 34.0347C19.1722 34.0572 19.1386 34.1039 19.1442 34.1095C19.1852 34.1505 19.229 34.1887 19.2752 34.2237H14.4091C14.4317 34.2032 14.453 34.1813 14.4728 34.1582C14.4878 34.1372 14.5003 34.1146 14.5102 34.0908C14.351 34.0049 14.1836 33.9353 14.0105 33.8831C6.7114 32.3858 2.18411 27.997 0.348107 20.8008C0.306933 20.6399 0.43233 20.2525 0 20.3929V14.0296C0.0205871 14.052 0.037444 14.0783 0.0599026 14.0989C0.0823613 14.1194 0.112298 14.1456 0.121656 14.14C0.308812 14.0314 0.308817 13.8405 0.361221 13.6609C2.09304 6.77227 6.40698 2.46268 13.303 0.732117C13.4434 0.696558 13.8645 0.820106 13.6605 0.384033L19.8366 0.391527ZM23.4712 22.9793C23.9076 22.9533 24.3453 22.9564 24.7813 22.9888C25.6048 23.1011 25.689 22.6986 25.6216 22.0173C25.4064 19.8594 24.3116 18.3061 22.4512 17.2599C21.1673 16.5393 19.7805 16.0864 18.3619 15.7196C16.7972 15.3172 15.2083 14.9972 13.7504 14.2598C12.8333 13.7975 12.152 13.1668 12.1445 12.0588C12.1445 11.6845 11.978 11.5704 11.6374 11.5723C10.5781 11.5723 9.51875 11.591 8.45571 11.5723C7.99156 11.5629 7.88301 11.7724 7.89424 12.1917C7.91296 14.2017 8.55116 15.9105 10.2393 17.1214C11.6299 18.1189 13.2338 18.6186 14.8546 19.0696C16.3799 19.4907 17.952 19.7547 19.4099 20.4079C20.1923 20.7579 21.0532 21.1565 21.2085 22.038C21.3826 23.0075 21.9085 23.0467 22.6384 22.9868C22.9098 22.9513 23.1905 22.9793 23.4712 22.9793Z" fill="white"/>
<path d="M229.421 29.9245C228.019 29.9245 226.614 29.8927 225.214 29.9395C224.91 29.9706 224.603 29.9171 224.328 29.785C224.052 29.6529 223.819 29.4473 223.653 29.1908C221.304 26.0485 218.897 22.9474 216.541 19.8144C216.111 19.2529 215.826 19.0863 215.289 19.7189C214.539 20.5953 213.735 21.423 212.88 22.1969C212.341 22.6891 212.184 23.2225 212.199 23.9206C212.238 25.6331 212.177 27.3474 212.229 29.058C212.25 29.7785 212.002 29.9807 211.319 29.9339C210.542 29.8749 209.761 29.8749 208.984 29.9339C208.143 30.0069 207.881 29.7467 207.885 28.8671C207.924 22.0471 207.907 15.2272 207.907 8.40722C207.907 7.75404 207.939 7.09713 207.898 6.44583C207.861 5.86377 208.1 5.67849 208.647 5.6972C209.519 5.72528 210.395 5.74025 211.267 5.6972C211.98 5.6579 212.235 5.87126 212.225 6.63298C212.184 9.96436 212.208 13.2976 212.208 16.629V17.7818L217.044 12.7061C219.127 10.5189 221.209 8.32984 223.29 6.13887C223.462 5.95171 223.623 5.73645 223.894 5.73458C225.504 5.72522 227.113 5.73458 228.981 5.73458C227.976 6.78265 227.155 7.65299 226.32 8.51203C224.04 10.8577 221.756 13.1984 219.468 15.5341C219.103 15.9084 218.907 16.1536 219.315 16.6814C222.539 20.84 225.728 25.0285 228.933 29.2058C229.054 29.3649 229.137 29.6138 229.423 29.5576L229.421 29.9245Z" fill="white"/>
<path d="M147.645 17.9842C147.645 10.8404 153.14 5.46722 160.447 5.46722C167.673 5.46722 173.123 10.7581 173.194 17.8401C173.265 24.922 167.652 30.4076 160.308 30.4038C153.084 30.4001 147.645 25.0662 147.645 17.9842ZM168.629 17.9842C168.629 13.1537 165.023 9.39749 160.381 9.39375C155.74 9.39001 152.169 13.0676 152.169 17.8794C152.169 22.7342 155.738 26.4418 160.417 26.453C165.096 26.4642 168.629 22.8203 168.629 17.9861V17.9842Z" fill="white"/>
<path d="M71.265 17.9241C71.265 14.2484 71.2837 10.5726 71.25 6.8969C71.25 6.11646 71.4072 5.81514 72.2719 5.82076C77.6657 5.85943 83.0595 5.85943 88.4533 5.82076C89.2562 5.82076 89.5089 6.09021 89.4247 6.8407C89.3218 7.75776 89.8215 8.93312 89.1982 9.53015C88.6218 10.0823 87.4708 9.69113 86.578 9.69674C83.2729 9.71546 79.9658 9.73599 76.6588 9.68359C75.7773 9.67048 75.5471 9.95312 75.5864 10.7897C75.65 12.1896 75.6481 13.597 75.5864 14.9932C75.5527 15.7643 75.8428 15.929 76.5465 15.914C79.9452 15.8822 83.344 15.9141 86.7427 15.8841C87.5176 15.8841 87.9125 16.0132 87.8114 16.8928C87.7104 17.7725 88.1726 18.9515 87.6355 19.513C87.0478 20.1437 85.8631 19.7189 84.9423 19.7301C82.2304 19.7601 79.5148 19.7395 76.8048 19.7414C75.607 19.7414 75.607 19.7414 75.6051 20.9804C75.6051 22.3204 75.6594 23.6623 75.5864 24.9986C75.5359 25.9081 75.7548 26.2188 76.7449 26.202C80.6752 26.1384 84.6054 26.202 88.5357 26.1552C89.3704 26.1459 89.6586 26.3873 89.5744 27.2014C89.5199 27.824 89.5199 28.4503 89.5744 29.0729C89.6287 29.7954 89.376 30.048 88.6274 30.0405C85.5113 30.005 82.3914 30.0255 79.2696 30.0255C76.9002 30.0255 74.5308 30.005 72.1577 30.0368C71.469 30.0368 71.2463 29.8328 71.2519 29.131C71.2818 25.3991 71.265 21.6616 71.265 17.9241Z" fill="white"/>
<path d="M53.4071 5.46325C56.2631 5.44075 59.054 6.31607 61.3856 7.96555C61.9227 8.33986 62.108 8.64487 61.6289 9.21569C61.1337 9.81652 60.6822 10.452 60.2776 11.1172C59.9333 11.6787 59.6319 11.6918 59.0967 11.3231C57.0698 9.93254 54.8688 9.06596 52.346 9.35231C51.4233 9.45712 50.5867 9.77715 49.9485 10.4752C48.7994 11.746 49.14 13.6308 50.6971 14.5197C51.9267 15.2197 53.3005 15.5378 54.6611 15.8785C56.028 16.186 57.3656 16.6118 58.6587 17.1511C61.554 18.4368 62.8997 20.4169 62.8061 23.2804C62.705 26.3554 61.1217 28.708 58.2414 29.6869C54.0191 31.1242 50.0065 30.413 46.226 28.1802C43.8023 26.7447 43.8248 26.7073 45.584 24.6037L45.7019 24.4596C46.5498 23.4433 46.5516 23.4415 47.6109 24.2406C49.8044 25.8969 52.2412 26.7765 55.0186 26.5388C56.9594 26.3704 58.2376 25.3878 58.4454 23.9299C58.6045 22.807 58.2582 21.9067 57.2663 21.2947C56.1901 20.6285 54.9867 20.3066 53.7777 20.0034C52.0492 19.6034 50.3536 19.0721 48.7058 18.4144C43.6526 16.3051 44.0493 9.46459 47.8205 6.99788C49.3459 6.01344 51.1538 5.467 53.4071 5.46325Z" fill="white"/>
<path d="M108.842 5.46699C112.211 5.44079 115.206 6.44582 117.77 8.69917C118.208 9.08659 118.307 9.35603 117.861 9.80895C117.228 10.4524 116.63 11.1303 116.07 11.8396C115.696 12.3281 115.412 12.3075 114.961 11.9126C113.579 10.7092 112.02 9.84081 110.177 9.52264C104.828 8.60371 100.323 12.8484 100.767 18.566C101.083 22.631 103.475 25.5057 107.006 26.2656C110.031 26.9169 112.688 26.0391 114.946 23.9823C115.529 23.4489 115.894 23.361 116.424 24.0179C116.928 24.6115 117.478 25.1646 118.069 25.6723C118.443 26.0129 118.372 26.2338 118.058 26.5688C114.539 30.3793 108.083 31.5509 103.2 29.2433C100.818 28.109 98.8629 26.2416 97.6204 23.9148C96.3779 21.5881 95.9135 18.9245 96.2955 16.3145C97.2724 9.73039 102.202 5.46699 108.842 5.46699Z" fill="white"/>
<path d="M178.608 18.0252C178.608 10.2975 185.056 4.63786 192.71 5.50439C195.527 5.82443 198.012 6.79582 200.157 8.65241C200.62 9.05105 200.758 9.3449 200.264 9.83712C199.627 10.4783 199.031 11.1576 198.477 11.8714C198.115 12.3337 197.868 12.3225 197.438 11.9445C195.707 10.4154 193.721 9.44216 191.365 9.39911C187.15 9.32051 183.749 12.3937 183.225 16.7432C182.679 21.2892 185.333 25.3934 189.482 26.2749C192.476 26.9113 195.097 26.0373 197.342 24.0179C197.984 23.4396 198.404 23.3123 198.946 24.0946C199.263 24.5475 199.723 24.8994 200.12 25.298C200.96 26.1402 200.971 26.1533 200.064 26.9824C196.253 30.4486 191.795 31.2402 187.008 29.7411C182.338 28.2794 179.694 24.875 178.792 20.0988C178.752 19.8847 178.724 19.6685 178.709 19.4512C178.67 18.9534 178.638 18.4594 178.608 18.0252Z" fill="white"/>
<path d="M126.687 17.8139C126.687 14.0707 126.706 10.3389 126.672 6.60325C126.672 5.90329 126.871 5.66745 127.565 5.69927C128.405 5.75168 129.248 5.75168 130.088 5.69927C130.857 5.64687 131.009 5.97438 131.005 6.67435C130.981 12.6839 130.988 18.6954 130.994 24.7068C130.994 26.1723 130.823 25.9964 132.289 26.0001C135.813 26.0001 139.335 26.0207 142.858 25.9889C143.552 25.9889 143.829 26.176 143.754 26.8816C143.649 27.8604 144.177 29.1274 143.531 29.7525C142.934 30.329 141.688 29.9191 140.724 29.9229C136.482 29.9379 132.24 29.9379 127.997 29.9229C126.489 29.9229 126.687 30.11 126.687 28.5585C126.682 24.9782 126.687 21.396 126.687 17.8139Z" fill="white"/>
</svg>
